<svg id="my-svg" width="100%" xmlns="http://www.w3.org/2000/svg" xmlns:xlink="http://www.w3.org/1999/xlink" viewBox="0 0 784 1228" style="max-width: 784px; background-color: white;" role="graphics-document document" aria-roledescription="gantt"><style>#my-svg{font-family:"trebuchet ms",verdana,arial,sans-serif;font-size:16px;fill:#333;}@keyframes edge-animation-frame{from{stroke-dashoffset:0;}}@keyframes dash{to{stroke-dashoffset:0;}}#my-svg .edge-animation-slow{stroke-dasharray:9,5!important;stroke-dashoffset:900;animation:dash 50s linear infinite;stroke-linecap:round;}#my-svg .edge-animation-fast{stroke-dasharray:9,5!important;stroke-dashoffset:900;animation:dash 20s linear infinite;stroke-linecap:round;}#my-svg .error-icon{fill:#552222;}#my-svg .error-text{fill:#552222;stroke:#552222;}#my-svg .edge-thickness-normal{stroke-width:1px;}#my-svg .edge-thickness-thick{stroke-width:3.5px;}#my-svg .edge-pattern-solid{stroke-dasharray:0;}#my-svg .edge-thickness-invisible{stroke-width:0;fill:none;}#my-svg .edge-pattern-dashed{stroke-dasharray:3;}#my-svg .edge-pattern-dotted{stroke-dasharray:2;}#my-svg .marker{fill:#333333;stroke:#333333;}#my-svg .marker.cross{stroke:#333333;}#my-svg svg{font-family:"trebuchet ms",verdana,arial,sans-serif;font-size:16px;}#my-svg p{margin:0;}#my-svg .mermaid-main-font{font-family:"trebuchet ms",verdana,arial,sans-serif;}#my-svg .exclude-range{fill:#eeeeee;}#my-svg .section{stroke:none;opacity:0.2;}#my-svg .section0{fill:rgba(102, 102, 255, 0.49);}#my-svg .section2{fill:#fff400;}#my-svg .section1,#my-svg .section3{fill:white;opacity:0.2;}#my-svg .sectionTitle0{fill:#333;}#my-svg .sectionTitle1{fill:#333;}#my-svg .sectionTitle2{fill:#333;}#my-svg .sectionTitle3{fill:#333;}#my-svg .sectionTitle{text-anchor:start;font-family:"trebuchet ms",verdana,arial,sans-serif;}#my-svg .grid .tick{stroke:lightgrey;opacity:0.8;shape-rendering:crispEdges;}#my-svg .grid .tick text{font-family:"trebuchet ms",verdana,arial,sans-serif;fill:#333;}#my-svg .grid path{stroke-width:0;}#my-svg .today{fill:none;stroke:red;stroke-width:2px;}#my-svg .task{stroke-width:2;}#my-svg .taskText{text-anchor:middle;font-family:"trebuchet ms",verdana,arial,sans-serif;}#my-svg .taskTextOutsideRight{fill:black;text-anchor:start;font-family:"trebuchet ms",verdana,arial,sans-serif;}#my-svg .taskTextOutsideLeft{fill:black;text-anchor:end;}#my-svg .task.clickable{cursor:pointer;}#my-svg .taskText.clickable{cursor:pointer;fill:#003163!important;font-weight:bold;}#my-svg .taskTextOutsideLeft.clickable{cursor:pointer;fill:#003163!important;font-weight:bold;}#my-svg .taskTextOutsideRight.clickable{cursor:pointer;fill:#003163!important;font-weight:bold;}#my-svg .taskText0,#my-svg .taskText1,#my-svg .taskText2,#my-svg .taskText3{fill:white;}#my-svg .task0,#my-svg .task1,#my-svg .task2,#my-svg .task3{fill:#8a90dd;stroke:#534fbc;}#my-svg .taskTextOutside0,#my-svg .taskTextOutside2{fill:black;}#my-svg .taskTextOutside1,#my-svg .taskTextOutside3{fill:black;}#my-svg .active0,#my-svg .active1,#my-svg .active2,#my-svg .active3{fill:#bfc7ff;stroke:#534fbc;}#my-svg .activeText0,#my-svg .activeText1,#my-svg .activeText2,#my-svg .activeText3{fill:black!important;}#my-svg .done0,#my-svg .done1,#my-svg .done2,#my-svg .done3{stroke:grey;fill:lightgrey;stroke-width:2;}#my-svg .doneText0,#my-svg .doneText1,#my-svg .doneText2,#my-svg .doneText3{fill:black!important;}#my-svg .crit0,#my-svg .crit1,#my-svg .crit2,#my-svg .crit3{stroke:#ff8888;fill:red;stroke-width:2;}#my-svg .activeCrit0,#my-svg .activeCrit1,#my-svg .activeCrit2,#my-svg .activeCrit3{stroke:#ff8888;fill:#bfc7ff;stroke-width:2;}#my-svg .doneCrit0,#my-svg .doneCrit1,#my-svg .doneCrit2,#my-svg .doneCrit3{stroke:#ff8888;fill:lightgrey;stroke-width:2;cursor:pointer;shape-rendering:crispEdges;}#my-svg .milestone{transform:rotate(45deg) scale(0.8,0.8);}#my-svg .milestoneText{font-style:italic;}#my-svg .doneCritText0,#my-svg .doneCritText1,#my-svg .doneCritText2,#my-svg .doneCritText3{fill:black!important;}#my-svg .vert{stroke:navy;}#my-svg .vertText{font-size:15px;text-anchor:middle;fill:navy!important;}#my-svg .activeCritText0,#my-svg .activeCritText1,#my-svg .activeCritText2,#my-svg .activeCritText3{fill:black!important;}#my-svg .titleText{text-anchor:middle;font-size:18px;fill:#333;font-family:"trebuchet ms",verdana,arial,sans-serif;}#my-svg :root{--mermaid-font-family:"trebuchet ms",verdana,arial,sans-serif;}</style><g/><g class="grid" transform="translate(150, 1178)" fill="none" font-size="10" font-family="sans-serif" text-anchor="middle"><path class="domain" stroke="currentColor" d="M0.5,-1143V0.5H559.5V-1143"/><g class="tick" opacity="1" transform="translate(48.5,0)"><line stroke="currentColor" y2="-1143"/><text fill="#000" y="3" dy="1em" stroke="none" font-size="10" style="text-anchor: middle;"/></g><g class="tick" opacity="1" transform="translate(161.5,0)"><line stroke="currentColor" y2="-1143"/><text fill="#000" y="3" dy="1em" stroke="none" font-size="10" style="text-anchor: middle;"/></g><g class="tick" opacity="1" transform="translate(274.5,0)"><line stroke="currentColor" y2="-1143"/><text fill="#000" y="3" dy="1em" stroke="none" font-size="10" style="text-anchor: middle;"/></g><g class="tick" opacity="1" transform="translate(386.5,0)"><line stroke="currentColor" y2="-1143"/><text fill="#000" y="3" dy="1em" stroke="none" font-size="10" style="text-anchor: middle;"/></g><g class="tick" opacity="1" transform="translate(499.5,0)"><line stroke="currentColor" y2="-1143"/><text fill="#000" y="3" dy="1em" stroke="none" font-size="10" style="text-anchor: middle;"/></g></g><g><rect x="0" y="48" width="746.5" height="24" class="section section0"/><rect x="0" y="72" width="746.5" height="24" class="section section0"/><rect x="0" y="96" width="746.5" height="24" class="section section1"/><rect x="0" y="120" width="746.5" height="24" class="section section1"/><rect x="0" y="144" width="746.5" height="24" class="section section2"/><rect x="0" y="168" width="746.5" height="24" class="section section2"/><rect x="0" y="192" width="746.5" height="24" class="section section3"/><rect x="0" y="216" width="746.5" height="24" class="section section3"/><rect x="0" y="240" width="746.5" height="24" class="section section0"/><rect x="0" y="264" width="746.5" height="24" class="section section0"/><rect x="0" y="288" width="746.5" height="24" class="section section1"/><rect x="0" y="312" width="746.5" height="24" class="section section1"/><rect x="0" y="336" width="746.5" height="24" class="section section2"/><rect x="0" y="360" width="746.5" height="24" class="section section2"/><rect x="0" y="384" width="746.5" height="24" class="section section3"/><rect x="0" y="408" width="746.5" height="24" class="section section3"/><rect x="0" y="432" width="746.5" height="24" class="section section0"/><rect x="0" y="456" width="746.5" height="24" class="section section0"/><rect x="0" y="480" width="746.5" height="24" class="section section1"/><rect x="0" y="504" width="746.5" height="24" class="section section1"/><rect x="0" y="528" width="746.5" height="24" class="section section2"/><rect x="0" y="552" width="746.5" height="24" class="section section2"/><rect x="0" y="576" width="746.5" height="24" class="section section3"/><rect x="0" y="600" width="746.5" height="24" class="section section3"/><rect x="0" y="624" width="746.5" height="24" class="section section0"/><rect x="0" y="648" width="746.5" height="24" class="section section0"/><rect x="0" y="672" width="746.5" height="24" class="section section1"/><rect x="0" y="696" width="746.5" height="24" class="section section1"/><rect x="0" y="720" width="746.5" height="24" class="section section2"/><rect x="0" y="744" width="746.5" height="24" class="section section2"/><rect x="0" y="768" width="746.5" height="24" class="section section3"/><rect x="0" y="792" width="746.5" height="24" class="section section3"/><rect x="0" y="816" width="746.5" height="24" class="section section0"/><rect x="0" y="840" width="746.5" height="24" class="section section0"/><rect x="0" y="864" width="746.5" height="24" class="section section1"/><rect x="0" y="888" width="746.5" height="24" class="section section1"/><rect x="0" y="912" width="746.5" height="24" class="section section2"/><rect x="0" y="936" width="746.5" height="24" class="section section2"/><rect x="0" y="960" width="746.5" height="24" class="section section3"/><rect x="0" y="984" width="746.5" height="24" class="section section3"/><rect x="0" y="1008" width="746.5" height="24" class="section section0"/><rect x="0" y="1032" width="746.5" height="24" class="section section0"/><rect x="0" y="1056" width="746.5" height="24" class="section section1"/><rect x="0" y="1080" width="746.5" height="24" class="section section1"/><rect x="0" y="1104" width="746.5" height="24" class="section section2"/><rect x="0" y="1128" width="746.5" height="24" class="section section2"/><rect x="0" y="1152" width="746.5" height="24" class="section section2"/></g><g><rect id="task1" rx="3" ry="3" x="150" y="50" width="87" height="20" transform-origin="193.5px 60px" class="task active0"/><rect id="task2" rx="3" ry="3" x="150" y="74" width="170" height="20" transform-origin="235px 84px" class="task done0"/><rect id="task3" rx="3" ry="3" x="150" y="98" width="12" height="20" transform-origin="156px 108px" class="task active1"/><rect id="task4" rx="3" ry="3" x="150" y="122" width="10" height="20" transform-origin="155px 132px" class="task done1"/><rect id="task5" rx="3" ry="3" x="150" y="146" width="26" height="20" transform-origin="163px 156px" class="task active2"/><rect id="task6" rx="3" ry="3" x="150" y="170" width="559" height="20" transform-origin="429.5px 180px" class="task crit2"/><rect id="task7" rx="3" ry="3" x="150" y="194" width="56" height="20" transform-origin="178px 204px" class="task active3"/><rect id="task8" rx="3" ry="3" x="150" y="218" width="559" height="20" transform-origin="429.5px 228px" class="task crit3"/><rect id="task9" rx="3" ry="3" x="150" y="242" width="559" height="20" transform-origin="429.5px 252px" class="task crit0"/><rect id="task10" rx="3" ry="3" x="150" y="266" width="559" height="20" transform-origin="429.5px 276px" class="task crit0"/><rect id="task11" rx="3" ry="3" x="150" y="290" width="559" height="20" transform-origin="429.5px 300px" class="task crit1"/><rect id="task12" rx="3" ry="3" x="150" y="314" width="559" height="20" transform-origin="429.5px 324px" class="task crit1"/><rect id="task13" rx="3" ry="3" x="150" y="338" width="559" height="20" transform-origin="429.5px 348px" class="task crit2"/><rect id="task14" rx="3" ry="3" x="150" y="362" width="559" height="20" transform-origin="429.5px 372px" class="task crit2"/><rect id="task15" rx="3" ry="3" x="150" y="386" width="99" height="20" transform-origin="199.5px 396px" class="task crit3"/><rect id="task16" rx="3" ry="3" x="150" y="410" width="96" height="20" transform-origin="198px 420px" class="task crit3"/><rect id="task17" rx="3" ry="3" x="150" y="434" width="559" height="20" transform-origin="429.5px 444px" class="task crit0"/><rect id="task18" rx="3" ry="3" x="150" y="458" width="559" height="20" transform-origin="429.5px 468px" class="task crit0"/><rect id="task19" rx="3" ry="3" x="150" y="482" width="559" height="20" transform-origin="429.5px 492px" class="task crit1"/><rect id="task20" rx="3" ry="3" x="150" y="506" width="559" height="20" transform-origin="429.5px 516px" class="task crit1"/><rect id="task21" rx="3" ry="3" x="150" y="530" width="559" height="20" transform-origin="429.5px 540px" class="task crit2"/><rect id="task22" rx="3" ry="3" x="150" y="554" width="559" height="20" transform-origin="429.5px 564px" class="task crit2"/><rect id="task23" rx="3" ry="3" x="150" y="578" width="180" height="20" transform-origin="240px 588px" class="task crit3"/><rect id="task24" rx="3" ry="3" x="150" y="602" width="312" height="20" transform-origin="306px 612px" class="task crit3"/><rect id="task25" rx="3" ry="3" x="150" y="626" width="559" height="20" transform-origin="429.5px 636px" class="task crit0"/><rect id="task26" rx="3" ry="3" x="150" y="650" width="559" height="20" transform-origin="429.5px 660px" class="task crit0"/><rect id="task27" rx="3" ry="3" x="150" y="674" width="160" height="20" transform-origin="230px 684px" class="task active1"/><rect id="task28" rx="3" ry="3" x="150" y="698" width="559" height="20" transform-origin="429.5px 708px" class="task crit1"/><rect id="task29" rx="3" ry="3" x="150" y="722" width="559" height="20" transform-origin="429.5px 732px" class="task crit2"/><rect id="task30" rx="3" ry="3" x="150" y="746" width="559" height="20" transform-origin="429.5px 756px" class="task crit2"/><rect id="task31" rx="3" ry="3" x="150" y="770" width="559" height="20" transform-origin="429.5px 780px" class="task crit3"/><rect id="task32" rx="3" ry="3" x="150" y="794" width="293" height="20" transform-origin="296.5px 804px" class="task crit3"/><rect id="task33" rx="3" ry="3" x="150" y="818" width="559" height="20" transform-origin="429.5px 828px" class="task crit0"/><rect id="task34" rx="3" ry="3" x="150" y="842" width="559" height="20" transform-origin="429.5px 852px" class="task crit0"/><rect id="task35" rx="3" ry="3" x="150" y="866" width="559" height="20" transform-origin="429.5px 876px" class="task crit1"/><rect id="task36" rx="3" ry="3" x="150" y="890" width="559" height="20" transform-origin="429.5px 900px" class="task crit1"/><rect id="task37" rx="3" ry="3" x="150" y="914" width="559" height="20" transform-origin="429.5px 924px" class="task crit2"/><rect id="task38" rx="3" ry="3" x="150" y="938" width="139" height="20" transform-origin="219.5px 948px" class="task crit2"/><rect id="task39" rx="3" ry="3" x="150" y="962" width="559" height="20" transform-origin="429.5px 972px" class="task crit3"/><rect id="task40" rx="3" ry="3" x="150" y="986" width="457" height="20" transform-origin="378.5px 996px" class="task crit3"/><rect id="task41" rx="3" ry="3" x="150" y="1010" width="365" height="20" transform-origin="332.5px 1020px" class="task crit0"/><rect id="task42" rx="3" ry="3" x="150" y="1034" width="145" height="20" transform-origin="222.5px 1044px" class="task crit0"/><rect id="task43" rx="3" ry="3" x="150" y="1058" width="406" height="20" transform-origin="353px 1068px" class="task crit1"/><rect id="task44" rx="3" ry="3" x="150" y="1082" width="520" height="20" transform-origin="410px 1092px" class="task crit1"/><rect id="task45" rx="3" ry="3" x="150" y="1106" width="559" height="20" transform-origin="429.5px 1116px" class="task crit2"/><rect id="task46" rx="3" ry="3" x="150" y="1130" width="157" height="20" transform-origin="228.5px 1140px" class="task crit2"/><rect id="task47" rx="3" ry="3" x="151" y="35" width="1.6" height="1168" transform-origin="430px 1164px" class="task vert  task2"/><text id="task1-text" font-size="11" x="193.5" y="63.5" class="taskText taskText0 activeText0 width-45.5">467.918 </text><text id="task2-text" font-size="11" x="235" y="87.5" class="taskText taskText0  doneText0 width-45.5">910.268 </text><text id="task3-text" font-size="11" x="167" y="111.5" class="taskTextOutsideRight taskTextOutside1 activeText1 width-38.5">62.373 </text><text id="task4-text" font-size="11" x="165" y="135.5" class="taskTextOutsideRight taskTextOutside1  doneText1 width-38.5">55.620 </text><text id="task5-text" font-size="11" x="181" y="159.5" class="taskTextOutsideRight taskTextOutside2 activeText2 width-45.5">141.591 </text><text id="task6-text" font-size="11" x="429.5" y="183.5" class="taskText taskText2  critText2 width-52.5">3001.007 </text><text id="task7-text" font-size="11" x="178" y="207.5" class="taskText taskText3 activeText3 width-45.5">301.886 </text><text id="task8-text" font-size="11" x="429.5" y="231.5" class="taskText taskText3  critText3 width-52.5">3001.030 </text><text id="task9-text" font-size="11" x="429.5" y="255.5" class="taskText taskText0  critText0 width-52.5">3001.011 </text><text id="task10-text" font-size="11" x="429.5" y="279.5" class="taskText taskText0  critText0 width-52.5">3001.009 </text><text id="task11-text" font-size="11" x="429.5" y="303.5" class="taskText taskText1  critText1 width-52.5">3001.006 </text><text id="task12-text" font-size="11" x="429.5" y="327.5" class="taskText taskText1  critText1 width-52.5">3001.007 </text><text id="task13-text" font-size="11" x="429.5" y="351.5" class="taskText taskText2  critText2 width-52.5">3001.017 </text><text id="task14-text" font-size="11" x="429.5" y="375.5" class="taskText taskText2  critText2 width-52.5">3001.012 </text><text id="task15-text" font-size="11" x="199.5" y="399.5" class="taskText taskText3  critText3 width-45.5">529.610 </text><text id="task16-text" font-size="11" x="198" y="423.5" class="taskText taskText3  critText3 width-45.5">513.236 </text><text id="task17-text" font-size="11" x="429.5" y="447.5" class="taskText taskText0  critText0 width-52.5">3001.024 </text><text id="task18-text" font-size="11" x="429.5" y="471.5" class="taskText taskText0  critText0 width-52.5">3001.024 </text><text id="task19-text" font-size="11" x="429.5" y="495.5" class="taskText taskText1  critText1 width-52.5">3001.011 </text><text id="task20-text" font-size="11" x="429.5" y="519.5" class="taskText taskText1  critText1 width-52.5">3001.011 </text><text id="task21-text" font-size="11" x="429.5" y="543.5" class="taskText taskText2  critText2 width-52.5">3001.015 </text><text id="task22-text" font-size="11" x="429.5" y="567.5" class="taskText taskText2  critText2 width-52.5">3001.011 </text><text id="task23-text" font-size="11" x="240" y="591.5" class="taskText taskText3  critText3 width-45.5">968.505 </text><text id="task24-text" font-size="11" x="306" y="615.5" class="taskText taskText3  critText3 width-52.5">1674.579 </text><text id="task25-text" font-size="11" x="429.5" y="639.5" class="taskText taskText0  critText0 width-52.5">3001.009 </text><text id="task26-text" font-size="11" x="429.5" y="663.5" class="taskText taskText0  critText0 width-52.5">3001.009 </text><text id="task27-text" font-size="11" x="230" y="687.5" class="taskText taskText1 activeText1 width-45.5">859.863 </text><text id="task28-text" font-size="11" x="429.5" y="711.5" class="taskText taskText1  critText1 width-52.5">3001.058 </text><text id="task29-text" font-size="11" x="429.5" y="735.5" class="taskText taskText2  critText2 width-52.5">3001.016 </text><text id="task30-text" font-size="11" x="429.5" y="759.5" class="taskText taskText2  critText2 width-52.5">3001.016 </text><text id="task31-text" font-size="11" x="429.5" y="783.5" class="taskText taskText3  critText3 width-52.5">3001.024 </text><text id="task32-text" font-size="11" x="296.5" y="807.5" class="taskText taskText3  critText3 width-52.5">1573.479 </text><text id="task33-text" font-size="11" x="429.5" y="831.5" class="taskText taskText0  critText0 width-52.5">3001.012 </text><text id="task34-text" font-size="11" x="429.5" y="855.5" class="taskText taskText0  critText0 width-52.5">3001.024 </text><text id="task35-text" font-size="11" x="429.5" y="879.5" class="taskText taskText1  critText1 width-52.5">3001.016 </text><text id="task36-text" font-size="11" x="429.5" y="903.5" class="taskText taskText1  critText1 width-52.5">3001.015 </text><text id="task37-text" font-size="11" x="429.5" y="927.5" class="taskText taskText2  critText2 width-52.5">3001.089 </text><text id="task38-text" font-size="11" x="219.5" y="951.5" class="taskText taskText2  critText2 width-45.5">745.803 </text><text id="task39-text" font-size="11" x="429.5" y="975.5" class="taskText taskText3  critText3 width-52.5">3001.072 </text><text id="task40-text" font-size="11" x="378.5" y="999.5" class="taskText taskText3  critText3 width-52.5">2450.988 </text><text id="task41-text" font-size="11" x="332.5" y="1023.5" class="taskText taskText0  critText0 width-52.5">1957.023 </text><text id="task42-text" font-size="11" x="222.5" y="1047.5" class="taskText taskText0  critText0 width-45.5">780.131 </text><text id="task43-text" font-size="11" x="353" y="1071.5" class="taskText taskText1  critText1 width-52.5">2179.744 </text><text id="task44-text" font-size="11" x="410" y="1095.5" class="taskText taskText1  critText1 width-52.5">2789.034 </text><text id="task45-text" font-size="11" x="429.5" y="1119.5" class="taskText taskText2  critText2 width-52.5">3001.072 </text><text id="task46-text" font-size="11" x="228.5" y="1143.5" class="taskText taskText2  critText2 width-45.5">842.594 </text><text id="task47-text" font-size="11" x="151" y="1223" class="taskText taskText2  vertText width-14.71923828125">TL </text></g><g><text dy="0em" x="10" y="74" font-size="11" class="sectionTitle sectionTitle0"><tspan alignment-baseline="central" x="10">markshare_4_0</tspan></text><text dy="0em" x="10" y="122" font-size="11" class="sectionTitle sectionTitle1"><tspan alignment-baseline="central" x="10">neos859080</tspan></text><text dy="0em" x="10" y="170" font-size="11" class="sectionTitle sectionTitle2"><tspan alignment-baseline="central" x="10">neos-3046615-murg</tspan></text><text dy="0em" x="10" y="218" font-size="11" class="sectionTitle sectionTitle3"><tspan alignment-baseline="central" x="10">eil33-2</tspan></text><text dy="0em" x="10" y="266" font-size="11" class="sectionTitle sectionTitle0"><tspan alignment-baseline="central" x="10">qap10</tspan></text><text dy="0em" x="10" y="314" font-size="11" class="sectionTitle sectionTitle1"><tspan alignment-baseline="central" x="10">app1-1</tspan></text><text dy="0em" x="10" y="362" font-size="11" class="sectionTitle sectionTitle2"><tspan alignment-baseline="central" x="10">hypothyroid-k1</tspan></text><text dy="0em" x="10" y="410" font-size="11" class="sectionTitle sectionTitle3"><tspan alignment-baseline="central" x="10">swath1</tspan></text><text dy="0em" x="10" y="458" font-size="11" class="sectionTitle sectionTitle0"><tspan alignment-baseline="central" x="10">rmatr100-p10</tspan></text><text dy="0em" x="10" y="506" font-size="11" class="sectionTitle sectionTitle1"><tspan alignment-baseline="central" x="10">dano3_3</tspan></text><text dy="0em" x="10" y="554" font-size="11" class="sectionTitle sectionTitle2"><tspan alignment-baseline="central" x="10">dano3_5</tspan></text><text dy="0em" x="10" y="602" font-size="11" class="sectionTitle sectionTitle3"><tspan alignment-baseline="central" x="10">neos-3083819-nubu</tspan></text><text dy="0em" x="10" y="650" font-size="11" class="sectionTitle sectionTitle0"><tspan alignment-baseline="central" x="10">decomp2</tspan></text><text dy="0em" x="10" y="698" font-size="11" class="sectionTitle sectionTitle1"><tspan alignment-baseline="central" x="10">irp</tspan></text><text dy="0em" x="10" y="746" font-size="11" class="sectionTitle sectionTitle2"><tspan alignment-baseline="central" x="10">momentum1</tspan></text><text dy="0em" x="10" y="794" font-size="11" class="sectionTitle sectionTitle3"><tspan alignment-baseline="central" x="10">neos-1122047</tspan></text><text dy="0em" x="10" y="842" font-size="11" class="sectionTitle sectionTitle0"><tspan alignment-baseline="central" x="10">neos-827175</tspan></text><text dy="0em" x="10" y="890" font-size="11" class="sectionTitle sectionTitle1"><tspan alignment-baseline="central" x="10">neos-2987310-joes</tspan></text><text dy="0em" x="10" y="938" font-size="11" class="sectionTitle sectionTitle2"><tspan alignment-baseline="central" x="10">neos8</tspan></text><text dy="0em" x="10" y="986" font-size="11" class="sectionTitle sectionTitle3"><tspan alignment-baseline="central" x="10">neos-957323</tspan></text><text dy="0em" x="10" y="1034" font-size="11" class="sectionTitle sectionTitle0"><tspan alignment-baseline="central" x="10">neos-2746589-doon</tspan></text><text dy="0em" x="10" y="1082" font-size="11" class="sectionTitle sectionTitle1"><tspan alignment-baseline="central" x="10">tbfp-network</tspan></text><text dy="0em" x="10" y="1142" font-size="11" class="sectionTitle sectionTitle2"><tspan alignment-baseline="central" x="10">nw04</tspan></text></g><g class="today"><line x1="330603" x2="330603" y1="25" y2="1203" class="today"/></g><text x="392" y="25" class="titleText">MIPLIB-linprogr (blue) VS MIPLIB-clpr (gray) (s)</text></svg>