<svg aria-roledescription="gantt" role="graphics-document document" style="max-width: 784px; background-color: white;" viewBox="0 0 784 1228" xmlns:xlink="http://www.w3.org/1999/xlink" xmlns="http://www.w3.org/2000/svg" width="100%" id="my-svg"><style>#my-svg{font-family:"trebuchet ms",verdana,arial,sans-serif;font-size:16px;fill:#333;}@keyframes edge-animation-frame{from{stroke-dashoffset:0;}}@keyframes dash{to{stroke-dashoffset:0;}}#my-svg .edge-animation-slow{stroke-dasharray:9,5!important;stroke-dashoffset:900;animation:dash 50s linear infinite;stroke-linecap:round;}#my-svg .edge-animation-fast{stroke-dasharray:9,5!important;stroke-dashoffset:900;animation:dash 20s linear infinite;stroke-linecap:round;}#my-svg .error-icon{fill:#552222;}#my-svg .error-text{fill:#552222;stroke:#552222;}#my-svg .edge-thickness-normal{stroke-width:1px;}#my-svg .edge-thickness-thick{stroke-width:3.5px;}#my-svg .edge-pattern-solid{stroke-dasharray:0;}#my-svg .edge-thickness-invisible{stroke-width:0;fill:none;}#my-svg .edge-pattern-dashed{stroke-dasharray:3;}#my-svg .edge-pattern-dotted{stroke-dasharray:2;}#my-svg .marker{fill:#333333;stroke:#333333;}#my-svg .marker.cross{stroke:#333333;}#my-svg svg{font-family:"trebuchet ms",verdana,arial,sans-serif;font-size:16px;}#my-svg p{margin:0;}#my-svg .mermaid-main-font{font-family:"trebuchet ms",verdana,arial,sans-serif;}#my-svg .exclude-range{fill:#eeeeee;}#my-svg .section{stroke:none;opacity:0.2;}#my-svg .section0{fill:rgba(102, 102, 255, 0.49);}#my-svg .section2{fill:#fff400;}#my-svg .section1,#my-svg .section3{fill:white;opacity:0.2;}#my-svg .sectionTitle0{fill:#333;}#my-svg .sectionTitle1{fill:#333;}#my-svg .sectionTitle2{fill:#333;}#my-svg .sectionTitle3{fill:#333;}#my-svg .sectionTitle{text-anchor:start;font-family:"trebuchet ms",verdana,arial,sans-serif;}#my-svg .grid .tick{stroke:lightgrey;opacity:0.8;shape-rendering:crispEdges;}#my-svg .grid .tick text{font-family:"trebuchet ms",verdana,arial,sans-serif;fill:#333;}#my-svg .grid path{stroke-width:0;}#my-svg .today{fill:none;stroke:red;stroke-width:2px;}#my-svg .task{stroke-width:2;}#my-svg .taskText{text-anchor:middle;font-family:"trebuchet ms",verdana,arial,sans-serif;}#my-svg .taskTextOutsideRight{fill:black;text-anchor:start;font-family:"trebuchet ms",verdana,arial,sans-serif;}#my-svg .taskTextOutsideLeft{fill:black;text-anchor:end;}#my-svg .task.clickable{cursor:pointer;}#my-svg .taskText.clickable{cursor:pointer;fill:#003163!important;font-weight:bold;}#my-svg .taskTextOutsideLeft.clickable{cursor:pointer;fill:#003163!important;font-weight:bold;}#my-svg .taskTextOutsideRight.clickable{cursor:pointer;fill:#003163!important;font-weight:bold;}#my-svg .taskText0,#my-svg .taskText1,#my-svg .taskText2,#my-svg .taskText3{fill:white;}#my-svg .task0,#my-svg .task1,#my-svg .task2,#my-svg .task3{fill:#8a90dd;stroke:#534fbc;}#my-svg .taskTextOutside0,#my-svg .taskTextOutside2{fill:black;}#my-svg .taskTextOutside1,#my-svg .taskTextOutside3{fill:black;}#my-svg .active0,#my-svg .active1,#my-svg .active2,#my-svg .active3{fill:#bfc7ff;stroke:#534fbc;}#my-svg .activeText0,#my-svg .activeText1,#my-svg .activeText2,#my-svg .activeText3{fill:black!important;}#my-svg .done0,#my-svg .done1,#my-svg .done2,#my-svg .done3{stroke:grey;fill:lightgrey;stroke-width:2;}#my-svg .doneText0,#my-svg .doneText1,#my-svg .doneText2,#my-svg .doneText3{fill:black!important;}#my-svg .crit0,#my-svg .crit1,#my-svg .crit2,#my-svg .crit3{stroke:#ff8888;fill:red;stroke-width:2;}#my-svg .activeCrit0,#my-svg .activeCrit1,#my-svg .activeCrit2,#my-svg .activeCrit3{stroke:#ff8888;fill:#bfc7ff;stroke-width:2;}#my-svg .doneCrit0,#my-svg .doneCrit1,#my-svg .doneCrit2,#my-svg .doneCrit3{stroke:#ff8888;fill:lightgrey;stroke-width:2;cursor:pointer;shape-rendering:crispEdges;}#my-svg .milestone{transform:rotate(45deg) scale(0.8,0.8);}#my-svg .milestoneText{font-style:italic;}#my-svg .doneCritText0,#my-svg .doneCritText1,#my-svg .doneCritText2,#my-svg .doneCritText3{fill:black!important;}#my-svg .vert{stroke:navy;}#my-svg .vertText{font-size:15px;text-anchor:middle;fill:navy!important;}#my-svg .activeCritText0,#my-svg .activeCritText1,#my-svg .activeCritText2,#my-svg .activeCritText3{fill:black!important;}#my-svg .titleText{text-anchor:middle;font-size:18px;fill:#333;font-family:"trebuchet ms",verdana,arial,sans-serif;}#my-svg :root{--mermaid-font-family:"trebuchet ms",verdana,arial,sans-serif;}</style><g/><g text-anchor="middle" font-family="sans-serif" font-size="10" fill="none" transform="translate(150, 1178)" class="grid"><path d="M0.5,-1143V0.5H559.5V-1143" stroke="currentColor" class="domain"/><g transform="translate(48.5,0)" opacity="1" class="tick"><line y2="-1143" stroke="currentColor"/><text style="text-anchor: middle;" font-size="10" stroke="none" dy="1em" y="3" fill="#000"/></g><g transform="translate(160.5,0)" opacity="1" class="tick"><line y2="-1143" stroke="currentColor"/><text style="text-anchor: middle;" font-size="10" stroke="none" dy="1em" y="3" fill="#000"/></g><g transform="translate(273.5,0)" opacity="1" class="tick"><line y2="-1143" stroke="currentColor"/><text style="text-anchor: middle;" font-size="10" stroke="none" dy="1em" y="3" fill="#000"/></g><g transform="translate(386.5,0)" opacity="1" class="tick"><line y2="-1143" stroke="currentColor"/><text style="text-anchor: middle;" font-size="10" stroke="none" dy="1em" y="3" fill="#000"/></g><g transform="translate(498.5,0)" opacity="1" class="tick"><line y2="-1143" stroke="currentColor"/><text style="text-anchor: middle;" font-size="10" stroke="none" dy="1em" y="3" fill="#000"/></g></g><g><rect class="section section0" height="24" width="746.5" y="48" x="0"/><rect class="section section0" height="24" width="746.5" y="72" x="0"/><rect class="section section1" height="24" width="746.5" y="96" x="0"/><rect class="section section1" height="24" width="746.5" y="120" x="0"/><rect class="section section2" height="24" width="746.5" y="144" x="0"/><rect class="section section2" height="24" width="746.5" y="168" x="0"/><rect class="section section3" height="24" width="746.5" y="192" x="0"/><rect class="section section3" height="24" width="746.5" y="216" x="0"/><rect class="section section0" height="24" width="746.5" y="240" x="0"/><rect class="section section0" height="24" width="746.5" y="264" x="0"/><rect class="section section1" height="24" width="746.5" y="288" x="0"/><rect class="section section1" height="24" width="746.5" y="312" x="0"/><rect class="section section2" height="24" width="746.5" y="336" x="0"/><rect class="section section2" height="24" width="746.5" y="360" x="0"/><rect class="section section3" height="24" width="746.5" y="384" x="0"/><rect class="section section3" height="24" width="746.5" y="408" x="0"/><rect class="section section0" height="24" width="746.5" y="432" x="0"/><rect class="section section0" height="24" width="746.5" y="456" x="0"/><rect class="section section1" height="24" width="746.5" y="480" x="0"/><rect class="section section1" height="24" width="746.5" y="504" x="0"/><rect class="section section2" height="24" width="746.5" y="528" x="0"/><rect class="section section2" height="24" width="746.5" y="552" x="0"/><rect class="section section3" height="24" width="746.5" y="576" x="0"/><rect class="section section3" height="24" width="746.5" y="600" x="0"/><rect class="section section0" height="24" width="746.5" y="624" x="0"/><rect class="section section0" height="24" width="746.5" y="648" x="0"/><rect class="section section1" height="24" width="746.5" y="672" x="0"/><rect class="section section1" height="24" width="746.5" y="696" x="0"/><rect class="section section2" height="24" width="746.5" y="720" x="0"/><rect class="section section2" height="24" width="746.5" y="744" x="0"/><rect class="section section3" height="24" width="746.5" y="768" x="0"/><rect class="section section3" height="24" width="746.5" y="792" x="0"/><rect class="section section0" height="24" width="746.5" y="816" x="0"/><rect class="section section0" height="24" width="746.5" y="840" x="0"/><rect class="section section1" height="24" width="746.5" y="864" x="0"/><rect class="section section1" height="24" width="746.5" y="888" x="0"/><rect class="section section2" height="24" width="746.5" y="912" x="0"/><rect class="section section2" height="24" width="746.5" y="936" x="0"/><rect class="section section3" height="24" width="746.5" y="960" x="0"/><rect class="section section3" height="24" width="746.5" y="984" x="0"/><rect class="section section0" height="24" width="746.5" y="1008" x="0"/><rect class="section section0" height="24" width="746.5" y="1032" x="0"/><rect class="section section1" height="24" width="746.5" y="1056" x="0"/><rect class="section section1" height="24" width="746.5" y="1080" x="0"/><rect class="section section2" height="24" width="746.5" y="1104" x="0"/><rect class="section section2" height="24" width="746.5" y="1128" x="0"/><rect class="section section2" height="24" width="746.5" y="1152" x="0"/></g><g><rect class="task active0" transform-origin="193.5px 60px" height="20" width="87" y="50" x="150" ry="3" rx="3" id="task1"/><rect class="task done0" transform-origin="260.5px 84px" height="20" width="221" y="74" x="150" ry="3" rx="3" id="task2"/><rect class="task active1" transform-origin="150px 108px" height="20" width="0" y="98" x="150" ry="3" rx="3" id="task3"/><rect class="task done1" transform-origin="151.5px 132px" height="20" width="3" y="122" x="150" ry="3" rx="3" id="task4"/><rect class="task active2" transform-origin="162px 156px" height="20" width="24" y="146" x="150" ry="3" rx="3" id="task5"/><rect class="task crit2" transform-origin="429.5px 180px" height="20" width="559" y="170" x="150" ry="3" rx="3" id="task6"/><rect class="task active3" transform-origin="177.5px 204px" height="20" width="55" y="194" x="150" ry="3" rx="3" id="task7"/><rect class="task crit3" transform-origin="429.5px 228px" height="20" width="559" y="218" x="150" ry="3" rx="3" id="task8"/><rect class="task crit0" transform-origin="429.5px 252px" height="20" width="559" y="242" x="150" ry="3" rx="3" id="task9"/><rect class="task crit0" transform-origin="429.5px 276px" height="20" width="559" y="266" x="150" ry="3" rx="3" id="task10"/><rect class="task crit1" transform-origin="429.5px 300px" height="20" width="559" y="290" x="150" ry="3" rx="3" id="task11"/><rect class="task crit1" transform-origin="429.5px 324px" height="20" width="559" y="314" x="150" ry="3" rx="3" id="task12"/><rect class="task crit2" transform-origin="429.5px 348px" height="20" width="559" y="338" x="150" ry="3" rx="3" id="task13"/><rect class="task crit2" transform-origin="429.5px 372px" height="20" width="559" y="362" x="150" ry="3" rx="3" id="task14"/><rect class="task crit3" transform-origin="212px 396px" height="20" width="124" y="386" x="150" ry="3" rx="3" id="task15"/><rect class="task crit3" transform-origin="203.5px 420px" height="20" width="107" y="410" x="150" ry="3" rx="3" id="task16"/><rect class="task crit0" transform-origin="429.5px 444px" height="20" width="559" y="434" x="150" ry="3" rx="3" id="task17"/><rect class="task crit0" transform-origin="429.5px 468px" height="20" width="559" y="458" x="150" ry="3" rx="3" id="task18"/><rect class="task crit1" transform-origin="429.5px 492px" height="20" width="559" y="482" x="150" ry="3" rx="3" id="task19"/><rect class="task crit1" transform-origin="429.5px 516px" height="20" width="559" y="506" x="150" ry="3" rx="3" id="task20"/><rect class="task crit2" transform-origin="429.5px 540px" height="20" width="559" y="530" x="150" ry="3" rx="3" id="task21"/><rect class="task crit2" transform-origin="429.5px 564px" height="20" width="559" y="554" x="150" ry="3" rx="3" id="task22"/><rect class="task crit3" transform-origin="243px 588px" height="20" width="186" y="578" x="150" ry="3" rx="3" id="task23"/><rect class="task crit3" transform-origin="429.5px 612px" height="20" width="559" y="602" x="150" ry="3" rx="3" id="task24"/><rect class="task crit0" transform-origin="429.5px 636px" height="20" width="559" y="626" x="150" ry="3" rx="3" id="task25"/><rect class="task crit0" transform-origin="429.5px 660px" height="20" width="559" y="650" x="150" ry="3" rx="3" id="task26"/><rect class="task active1" transform-origin="241.5px 684px" height="20" width="183" y="674" x="150" ry="3" rx="3" id="task27"/><rect class="task crit1" transform-origin="429.5px 708px" height="20" width="559" y="698" x="150" ry="3" rx="3" id="task28"/><rect class="task crit2" transform-origin="429.5px 732px" height="20" width="559" y="722" x="150" ry="3" rx="3" id="task29"/><rect class="task crit2" transform-origin="429.5px 756px" height="20" width="559" y="746" x="150" ry="3" rx="3" id="task30"/><rect class="task crit3" transform-origin="429.5px 780px" height="20" width="559" y="770" x="150" ry="3" rx="3" id="task31"/><rect class="task crit3" transform-origin="429.5px 804px" height="20" width="559" y="794" x="150" ry="3" rx="3" id="task32"/><rect class="task crit0" transform-origin="429.5px 828px" height="20" width="559" y="818" x="150" ry="3" rx="3" id="task33"/><rect class="task crit0" transform-origin="429.5px 852px" height="20" width="559" y="842" x="150" ry="3" rx="3" id="task34"/><rect class="task crit1" transform-origin="429.5px 876px" height="20" width="559" y="866" x="150" ry="3" rx="3" id="task35"/><rect class="task crit1" transform-origin="429.5px 900px" height="20" width="559" y="890" x="150" ry="3" rx="3" id="task36"/><rect class="task crit2" transform-origin="429.5px 924px" height="20" width="559" y="914" x="150" ry="3" rx="3" id="task37"/><rect class="task crit2" transform-origin="429.5px 948px" height="20" width="559" y="938" x="150" ry="3" rx="3" id="task38"/><rect class="task crit3" transform-origin="429.5px 972px" height="20" width="559" y="962" x="150" ry="3" rx="3" id="task39"/><rect class="task crit3" transform-origin="393px 996px" height="20" width="486" y="986" x="150" ry="3" rx="3" id="task40"/><rect class="task crit0" transform-origin="328.5px 1020px" height="20" width="357" y="1010" x="150" ry="3" rx="3" id="task41"/><rect class="task crit0" transform-origin="287px 1044px" height="20" width="274" y="1034" x="150" ry="3" rx="3" id="task42"/><rect class="task crit1" transform-origin="357.5px 1068px" height="20" width="415" y="1058" x="150" ry="3" rx="3" id="task43"/><rect class="task crit1" transform-origin="349.5px 1092px" height="20" width="399" y="1082" x="150" ry="3" rx="3" id="task44"/><rect class="task crit2" transform-origin="425.5px 1116px" height="20" width="551" y="1106" x="150" ry="3" rx="3" id="task45"/><rect class="task crit2" transform-origin="251px 1140px" height="20" width="202" y="1130" x="150" ry="3" rx="3" id="task46"/><rect class="task vert  task2" transform-origin="709px 1164px" height="1168" width="1.6" y="35" x="709" ry="3" rx="3" id="task47"/><text class="taskText taskText0 activeText0 width-38.65625" y="63.5" x="193.5" font-size="11" id="task1-text">465.484 </text><text class="taskText taskText0  doneText0 width-44.421875" y="87.5" x="260.5" font-size="11" id="task2-text">1188.945 </text><text class="taskTextOutsideRight taskTextOutside1 activeText1 width-27.125" y="111.5" x="155" font-size="11" id="task3-text">2.175 </text><text class="taskTextOutsideRight taskTextOutside1  doneText1 width-32.890625" y="135.5" x="158" font-size="11" id="task4-text">16.548 </text><text class="taskTextOutsideRight taskTextOutside2 activeText2 width-38.65625" y="159.5" x="179" font-size="11" id="task5-text">131.044 </text><text class="taskText taskText2  critText2 width-44.421875" y="183.5" x="429.5" font-size="11" id="task6-text">3001.007 </text><text class="taskText taskText3 activeText3 width-38.65625" y="207.5" x="177.5" font-size="11" id="task7-text">293.743 </text><text class="taskText taskText3  critText3 width-44.421875" y="231.5" x="429.5" font-size="11" id="task8-text">3001.029 </text><text class="taskText taskText0  critText0 width-44.421875" y="255.5" x="429.5" font-size="11" id="task9-text">3001.011 </text><text class="taskText taskText0  critText0 width-44.421875" y="279.5" x="429.5" font-size="11" id="task10-text">3001.010 </text><text class="taskText taskText1  critText1 width-44.421875" y="303.5" x="429.5" font-size="11" id="task11-text">3001.006 </text><text class="taskText taskText1  critText1 width-44.421875" y="327.5" x="429.5" font-size="11" id="task12-text">3001.005 </text><text class="taskText taskText2  critText2 width-44.421875" y="351.5" x="429.5" font-size="11" id="task13-text">3001.017 </text><text class="taskText taskText2  critText2 width-44.421875" y="375.5" x="429.5" font-size="11" id="task14-text">3001.024 </text><text class="taskText taskText3  critText3 width-38.65625" y="399.5" x="212" font-size="11" id="task15-text">663.705 </text><text class="taskText taskText3  critText3 width-38.65625" y="423.5" x="203.5" font-size="11" id="task16-text">574.963 </text><text class="taskText taskText0  critText0 width-44.421875" y="447.5" x="429.5" font-size="11" id="task17-text">3001.024 </text><text class="taskText taskText0  critText0 width-44.421875" y="471.5" x="429.5" font-size="11" id="task18-text">3001.027 </text><text class="taskText taskText1  critText1 width-44.421875" y="495.5" x="429.5" font-size="11" id="task19-text">3001.011 </text><text class="taskText taskText1  critText1 width-44.421875" y="519.5" x="429.5" font-size="11" id="task20-text">3001.012 </text><text class="taskText taskText2  critText2 width-44.421875" y="543.5" x="429.5" font-size="11" id="task21-text">3001.015 </text><text class="taskText taskText2  critText2 width-44.421875" y="567.5" x="429.5" font-size="11" id="task22-text">3001.011 </text><text class="taskText taskText3  critText3 width-38.65625" y="591.5" x="243" font-size="11" id="task23-text">996.328 </text><text class="taskText taskText3  critText3 width-44.421875" y="615.5" x="429.5" font-size="11" id="task24-text">3001.016 </text><text class="taskText taskText0  critText0 width-44.421875" y="639.5" x="429.5" font-size="11" id="task25-text">3001.009 </text><text class="taskText taskText0  critText0 width-44.421875" y="663.5" x="429.5" font-size="11" id="task26-text">3001.008 </text><text class="taskText taskText1 activeText1 width-38.65625" y="687.5" x="241.5" font-size="11" id="task27-text">985.057 </text><text class="taskText taskText1  critText1 width-44.421875" y="711.5" x="429.5" font-size="11" id="task28-text">3001.052 </text><text class="taskText taskText2  critText2 width-44.421875" y="735.5" x="429.5" font-size="11" id="task29-text">3001.016 </text><text class="taskText taskText2  critText2 width-44.421875" y="759.5" x="429.5" font-size="11" id="task30-text">3001.024 </text><text class="taskText taskText3  critText3 width-44.421875" y="783.5" x="429.5" font-size="11" id="task31-text">3001.024 </text><text class="taskText taskText3  critText3 width-44.421875" y="807.5" x="429.5" font-size="11" id="task32-text">3001.024 </text><text class="taskText taskText0  critText0 width-44.421875" y="831.5" x="429.5" font-size="11" id="task33-text">3001.012 </text><text class="taskText taskText0  critText0 width-44.421875" y="855.5" x="429.5" font-size="11" id="task34-text">3001.017 </text><text class="taskText taskText1  critText1 width-44.421875" y="879.5" x="429.5" font-size="11" id="task35-text">3001.016 </text><text class="taskText taskText1  critText1 width-44.421875" y="903.5" x="429.5" font-size="11" id="task36-text">3001.017 </text><text class="taskText taskText2  critText2 width-44.421875" y="927.5" x="429.5" font-size="11" id="task37-text">3001.089 </text><text class="taskText taskText2  critText2 width-44.421875" y="951.5" x="429.5" font-size="11" id="task38-text">3001.074 </text><text class="taskText taskText3  critText3 width-44.421875" y="975.5" x="429.5" font-size="11" id="task39-text">3001.072 </text><text class="taskText taskText3  critText3 width-44.421875" y="999.5" x="393" font-size="11" id="task40-text">2610.112 </text><text class="taskText taskText0  critText0 width-44.421875" y="1023.5" x="328.5" font-size="11" id="task41-text">1914.659 </text><text class="taskText taskText0  critText0 width-44.421875" y="1047.5" x="287" font-size="11" id="task42-text">1469.687 </text><text class="taskText taskText1  critText1 width-44.421875" y="1071.5" x="357.5" font-size="11" id="task43-text">2228.784 </text><text class="taskText taskText1  critText1 width-44.421875" y="1095.5" x="349.5" font-size="11" id="task44-text">2140.047 </text><text class="taskText taskText2  critText2 width-44.421875" y="1119.5" x="425.5" font-size="11" id="task45-text">2956.000 </text><text class="taskText taskText2  critText2 width-44.421875" y="1143.5" x="251" font-size="11" id="task46-text">1082.653 </text><text class="taskTextOutsideLeft taskTextOutside2  vertText" y="1223" x="709" font-size="11" id="task47-text">TL </text></g><g><text class="sectionTitle sectionTitle0" font-size="11" y="74" x="10" dy="0em"><tspan x="10" alignment-baseline="central">markshare_4_0</tspan></text><text class="sectionTitle sectionTitle1" font-size="11" y="122" x="10" dy="0em"><tspan x="10" alignment-baseline="central">neos859080</tspan></text><text class="sectionTitle sectionTitle2" font-size="11" y="170" x="10" dy="0em"><tspan x="10" alignment-baseline="central">neos-3046615-murg</tspan></text><text class="sectionTitle sectionTitle3" font-size="11" y="218" x="10" dy="0em"><tspan x="10" alignment-baseline="central">eil33-2</tspan></text><text class="sectionTitle sectionTitle0" font-size="11" y="266" x="10" dy="0em"><tspan x="10" alignment-baseline="central">qap10</tspan></text><text class="sectionTitle sectionTitle1" font-size="11" y="314" x="10" dy="0em"><tspan x="10" alignment-baseline="central">app1-1</tspan></text><text class="sectionTitle sectionTitle2" font-size="11" y="362" x="10" dy="0em"><tspan x="10" alignment-baseline="central">hypothyroid-k1</tspan></text><text class="sectionTitle sectionTitle3" font-size="11" y="410" x="10" dy="0em"><tspan x="10" alignment-baseline="central">swath1</tspan></text><text class="sectionTitle sectionTitle0" font-size="11" y="458" x="10" dy="0em"><tspan x="10" alignment-baseline="central">rmatr100-p10</tspan></text><text class="sectionTitle sectionTitle1" font-size="11" y="506" x="10" dy="0em"><tspan x="10" alignment-baseline="central">dano3_3</tspan></text><text class="sectionTitle sectionTitle2" font-size="11" y="554" x="10" dy="0em"><tspan x="10" alignment-baseline="central">dano3_5</tspan></text><text class="sectionTitle sectionTitle3" font-size="11" y="602" x="10" dy="0em"><tspan x="10" alignment-baseline="central">neos-3083819-nubu</tspan></text><text class="sectionTitle sectionTitle0" font-size="11" y="650" x="10" dy="0em"><tspan x="10" alignment-baseline="central">decomp2</tspan></text><text class="sectionTitle sectionTitle1" font-size="11" y="698" x="10" dy="0em"><tspan x="10" alignment-baseline="central">irp</tspan></text><text class="sectionTitle sectionTitle2" font-size="11" y="746" x="10" dy="0em"><tspan x="10" alignment-baseline="central">momentum1</tspan></text><text class="sectionTitle sectionTitle3" font-size="11" y="794" x="10" dy="0em"><tspan x="10" alignment-baseline="central">neos-1122047</tspan></text><text class="sectionTitle sectionTitle0" font-size="11" y="842" x="10" dy="0em"><tspan x="10" alignment-baseline="central">neos-827175</tspan></text><text class="sectionTitle sectionTitle1" font-size="11" y="890" x="10" dy="0em"><tspan x="10" alignment-baseline="central">neos-2987310-joes</tspan></text><text class="sectionTitle sectionTitle2" font-size="11" y="938" x="10" dy="0em"><tspan x="10" alignment-baseline="central">neos8</tspan></text><text class="sectionTitle sectionTitle3" font-size="11" y="986" x="10" dy="0em"><tspan x="10" alignment-baseline="central">neos-957323</tspan></text><text class="sectionTitle sectionTitle0" font-size="11" y="1034" x="10" dy="0em"><tspan x="10" alignment-baseline="central">neos-2746589-doon</tspan></text><text class="sectionTitle sectionTitle1" font-size="11" y="1082" x="10" dy="0em"><tspan x="10" alignment-baseline="central">tbfp-network</tspan></text><text class="sectionTitle sectionTitle2" font-size="11" y="1142" x="10" dy="0em"><tspan x="10" alignment-baseline="central">nw04</tspan></text></g><g class="today"><line class="today" y2="1203" y1="25" x2="327061" x1="327061"/></g><text class="titleText" y="25" x="392">MIPLIB-linprog (blue) VS MIPLIB-clpq (gray) (s)</text></svg>