<svg id="my-svg" width="100%" xmlns="http://www.w3.org/2000/svg" xmlns:xlink="http://www.w3.org/1999/xlink" viewBox="0 0 784 2092" style="max-width: 784px; background-color: white;" role="graphics-document document" aria-roledescription="gantt"><style>#my-svg{font-family:"trebuchet ms",verdana,arial,sans-serif;font-size:16px;fill:#333;}@keyframes edge-animation-frame{from{stroke-dashoffset:0;}}@keyframes dash{to{stroke-dashoffset:0;}}#my-svg .edge-animation-slow{stroke-dasharray:9,5!important;stroke-dashoffset:900;animation:dash 50s linear infinite;stroke-linecap:round;}#my-svg .edge-animation-fast{stroke-dasharray:9,5!important;stroke-dashoffset:900;animation:dash 20s linear infinite;stroke-linecap:round;}#my-svg .error-icon{fill:#552222;}#my-svg .error-text{fill:#552222;stroke:#552222;}#my-svg .edge-thickness-normal{stroke-width:1px;}#my-svg .edge-thickness-thick{stroke-width:3.5px;}#my-svg .edge-pattern-solid{stroke-dasharray:0;}#my-svg .edge-thickness-invisible{stroke-width:0;fill:none;}#my-svg .edge-pattern-dashed{stroke-dasharray:3;}#my-svg .edge-pattern-dotted{stroke-dasharray:2;}#my-svg .marker{fill:#333333;stroke:#333333;}#my-svg .marker.cross{stroke:#333333;}#my-svg svg{font-family:"trebuchet ms",verdana,arial,sans-serif;font-size:16px;}#my-svg p{margin:0;}#my-svg .mermaid-main-font{font-family:"trebuchet ms",verdana,arial,sans-serif;}#my-svg .exclude-range{fill:#eeeeee;}#my-svg .section{stroke:none;opacity:0.2;}#my-svg .section0{fill:rgba(102, 102, 255, 0.49);}#my-svg .section2{fill:#fff400;}#my-svg .section1,#my-svg .section3{fill:white;opacity:0.2;}#my-svg .sectionTitle0{fill:#333;}#my-svg .sectionTitle1{fill:#333;}#my-svg .sectionTitle2{fill:#333;}#my-svg .sectionTitle3{fill:#333;}#my-svg .sectionTitle{text-anchor:start;font-family:"trebuchet ms",verdana,arial,sans-serif;}#my-svg .grid .tick{stroke:lightgrey;opacity:0.8;shape-rendering:crispEdges;}#my-svg .grid .tick text{font-family:"trebuchet ms",verdana,arial,sans-serif;fill:#333;}#my-svg .grid path{stroke-width:0;}#my-svg .today{fill:none;stroke:red;stroke-width:2px;}#my-svg .task{stroke-width:2;}#my-svg .taskText{text-anchor:middle;font-family:"trebuchet ms",verdana,arial,sans-serif;}#my-svg .taskTextOutsideRight{fill:black;text-anchor:start;font-family:"trebuchet ms",verdana,arial,sans-serif;}#my-svg .taskTextOutsideLeft{fill:black;text-anchor:end;}#my-svg .task.clickable{cursor:pointer;}#my-svg .taskText.clickable{cursor:pointer;fill:#003163!important;font-weight:bold;}#my-svg .taskTextOutsideLeft.clickable{cursor:pointer;fill:#003163!important;font-weight:bold;}#my-svg .taskTextOutsideRight.clickable{cursor:pointer;fill:#003163!important;font-weight:bold;}#my-svg .taskText0,#my-svg .taskText1,#my-svg .taskText2,#my-svg .taskText3{fill:white;}#my-svg .task0,#my-svg .task1,#my-svg .task2,#my-svg .task3{fill:#8a90dd;stroke:#534fbc;}#my-svg .taskTextOutside0,#my-svg .taskTextOutside2{fill:black;}#my-svg .taskTextOutside1,#my-svg .taskTextOutside3{fill:black;}#my-svg .active0,#my-svg .active1,#my-svg .active2,#my-svg .active3{fill:#bfc7ff;stroke:#534fbc;}#my-svg .activeText0,#my-svg .activeText1,#my-svg .activeText2,#my-svg .activeText3{fill:black!important;}#my-svg .done0,#my-svg .done1,#my-svg .done2,#my-svg .done3{stroke:grey;fill:lightgrey;stroke-width:2;}#my-svg .doneText0,#my-svg .doneText1,#my-svg .doneText2,#my-svg .doneText3{fill:black!important;}#my-svg .crit0,#my-svg .crit1,#my-svg .crit2,#my-svg .crit3{stroke:#ff8888;fill:red;stroke-width:2;}#my-svg .activeCrit0,#my-svg .activeCrit1,#my-svg .activeCrit2,#my-svg .activeCrit3{stroke:#ff8888;fill:#bfc7ff;stroke-width:2;}#my-svg .doneCrit0,#my-svg .doneCrit1,#my-svg .doneCrit2,#my-svg .doneCrit3{stroke:#ff8888;fill:lightgrey;stroke-width:2;cursor:pointer;shape-rendering:crispEdges;}#my-svg .milestone{transform:rotate(45deg) scale(0.8,0.8);}#my-svg .milestoneText{font-style:italic;}#my-svg .doneCritText0,#my-svg .doneCritText1,#my-svg .doneCritText2,#my-svg .doneCritText3{fill:black!important;}#my-svg .vert{stroke:navy;}#my-svg .vertText{font-size:15px;text-anchor:middle;fill:navy!important;}#my-svg .activeCritText0,#my-svg .activeCritText1,#my-svg .activeCritText2,#my-svg .activeCritText3{fill:black!important;}#my-svg .titleText{text-anchor:middle;font-size:18px;fill:#333;font-family:"trebuchet ms",verdana,arial,sans-serif;}#my-svg :root{--mermaid-font-family:"trebuchet ms",verdana,arial,sans-serif;}</style><g/><g class="grid" transform="translate(150, 2042)" fill="none" font-size="10" font-family="sans-serif" text-anchor="middle"><path class="domain" stroke="currentColor" d="M0.5,-2007V0.5H559.5V-2007"/><g class="tick" opacity="1" transform="translate(48.5,0)"><line stroke="currentColor" y2="-2007"/><text fill="#000" y="3" dy="1em" stroke="none" font-size="10" style="text-anchor: middle;"/></g><g class="tick" opacity="1" transform="translate(161.5,0)"><line stroke="currentColor" y2="-2007"/><text fill="#000" y="3" dy="1em" stroke="none" font-size="10" style="text-anchor: middle;"/></g><g class="tick" opacity="1" transform="translate(274.5,0)"><line stroke="currentColor" y2="-2007"/><text fill="#000" y="3" dy="1em" stroke="none" font-size="10" style="text-anchor: middle;"/></g><g class="tick" opacity="1" transform="translate(386.5,0)"><line stroke="currentColor" y2="-2007"/><text fill="#000" y="3" dy="1em" stroke="none" font-size="10" style="text-anchor: middle;"/></g><g class="tick" opacity="1" transform="translate(499.5,0)"><line stroke="currentColor" y2="-2007"/><text fill="#000" y="3" dy="1em" stroke="none" font-size="10" style="text-anchor: middle;"/></g></g><g><rect x="0" y="48" width="746.5" height="24" class="section section0"/><rect x="0" y="72" width="746.5" height="24" class="section section1"/><rect x="0" y="96" width="746.5" height="24" class="section section2"/><rect x="0" y="120" width="746.5" height="24" class="section section3"/><rect x="0" y="144" width="746.5" height="24" class="section section0"/><rect x="0" y="168" width="746.5" height="24" class="section section1"/><rect x="0" y="192" width="746.5" height="24" class="section section2"/><rect x="0" y="216" width="746.5" height="24" class="section section3"/><rect x="0" y="240" width="746.5" height="24" class="section section0"/><rect x="0" y="264" width="746.5" height="24" class="section section1"/><rect x="0" y="288" width="746.5" height="24" class="section section2"/><rect x="0" y="312" width="746.5" height="24" class="section section3"/><rect x="0" y="336" width="746.5" height="24" class="section section0"/><rect x="0" y="360" width="746.5" height="24" class="section section1"/><rect x="0" y="384" width="746.5" height="24" class="section section2"/><rect x="0" y="408" width="746.5" height="24" class="section section3"/><rect x="0" y="432" width="746.5" height="24" class="section section0"/><rect x="0" y="456" width="746.5" height="24" class="section section1"/><rect x="0" y="480" width="746.5" height="24" class="section section2"/><rect x="0" y="504" width="746.5" height="24" class="section section3"/><rect x="0" y="528" width="746.5" height="24" class="section section0"/><rect x="0" y="552" width="746.5" height="24" class="section section1"/><rect x="0" y="576" width="746.5" height="24" class="section section2"/><rect x="0" y="600" width="746.5" height="24" class="section section3"/><rect x="0" y="624" width="746.5" height="24" class="section section0"/><rect x="0" y="648" width="746.5" height="24" class="section section1"/><rect x="0" y="672" width="746.5" height="24" class="section section2"/><rect x="0" y="696" width="746.5" height="24" class="section section3"/><rect x="0" y="720" width="746.5" height="24" class="section section0"/><rect x="0" y="744" width="746.5" height="24" class="section section1"/><rect x="0" y="768" width="746.5" height="24" class="section section2"/><rect x="0" y="792" width="746.5" height="24" class="section section3"/><rect x="0" y="816" width="746.5" height="24" class="section section0"/><rect x="0" y="840" width="746.5" height="24" class="section section1"/><rect x="0" y="864" width="746.5" height="24" class="section section2"/><rect x="0" y="888" width="746.5" height="24" class="section section3"/><rect x="0" y="912" width="746.5" height="24" class="section section0"/><rect x="0" y="936" width="746.5" height="24" class="section section1"/><rect x="0" y="960" width="746.5" height="24" class="section section2"/><rect x="0" y="984" width="746.5" height="24" class="section section3"/><rect x="0" y="1008" width="746.5" height="24" class="section section0"/><rect x="0" y="1032" width="746.5" height="24" class="section section1"/><rect x="0" y="1056" width="746.5" height="24" class="section section2"/><rect x="0" y="1080" width="746.5" height="24" class="section section3"/><rect x="0" y="1104" width="746.5" height="24" class="section section0"/><rect x="0" y="1128" width="746.5" height="24" class="section section1"/><rect x="0" y="1152" width="746.5" height="24" class="section section2"/><rect x="0" y="1176" width="746.5" height="24" class="section section3"/><rect x="0" y="1200" width="746.5" height="24" class="section section0"/><rect x="0" y="1224" width="746.5" height="24" class="section section1"/><rect x="0" y="1248" width="746.5" height="24" class="section section2"/><rect x="0" y="1272" width="746.5" height="24" class="section section3"/><rect x="0" y="1296" width="746.5" height="24" class="section section0"/><rect x="0" y="1320" width="746.5" height="24" class="section section1"/><rect x="0" y="1344" width="746.5" height="24" class="section section2"/><rect x="0" y="1368" width="746.5" height="24" class="section section3"/><rect x="0" y="1392" width="746.5" height="24" class="section section0"/><rect x="0" y="1416" width="746.5" height="24" class="section section1"/><rect x="0" y="1440" width="746.5" height="24" class="section section2"/><rect x="0" y="1464" width="746.5" height="24" class="section section3"/><rect x="0" y="1488" width="746.5" height="24" class="section section0"/><rect x="0" y="1512" width="746.5" height="24" class="section section1"/><rect x="0" y="1536" width="746.5" height="24" class="section section2"/><rect x="0" y="1560" width="746.5" height="24" class="section section3"/><rect x="0" y="1584" width="746.5" height="24" class="section section0"/><rect x="0" y="1608" width="746.5" height="24" class="section section1"/><rect x="0" y="1632" width="746.5" height="24" class="section section2"/><rect x="0" y="1656" width="746.5" height="24" class="section section3"/><rect x="0" y="1680" width="746.5" height="24" class="section section0"/><rect x="0" y="1704" width="746.5" height="24" class="section section1"/><rect x="0" y="1728" width="746.5" height="24" class="section section2"/><rect x="0" y="1752" width="746.5" height="24" class="section section3"/><rect x="0" y="1776" width="746.5" height="24" class="section section0"/><rect x="0" y="1800" width="746.5" height="24" class="section section1"/><rect x="0" y="1824" width="746.5" height="24" class="section section2"/><rect x="0" y="1848" width="746.5" height="24" class="section section3"/><rect x="0" y="1872" width="746.5" height="24" class="section section0"/><rect x="0" y="1896" width="746.5" height="24" class="section section1"/><rect x="0" y="1920" width="746.5" height="24" class="section section2"/><rect x="0" y="1944" width="746.5" height="24" class="section section3"/><rect x="0" y="1968" width="746.5" height="24" class="section section0"/><rect x="0" y="1992" width="746.5" height="24" class="section section1"/><rect x="0" y="2016" width="746.5" height="24" class="section section1"/></g><g><rect id="task1" rx="3" ry="3" x="150" y="50" width="0" height="20" transform-origin="150px 60px" class="task active0"/><rect id="task2" rx="3" ry="3" x="150" y="74" width="0" height="20" transform-origin="150px 84px" class="task active1"/><rect id="task3" rx="3" ry="3" x="150" y="98" width="0" height="20" transform-origin="150px 108px" class="task active2"/><rect id="task4" rx="3" ry="3" x="150" y="122" width="0" height="20" transform-origin="150px 132px" class="task active3"/><rect id="task5" rx="3" ry="3" x="150" y="146" width="0" height="20" transform-origin="150px 156px" class="task active0"/><rect id="task6" rx="3" ry="3" x="150" y="170" width="0" height="20" transform-origin="150px 180px" class="task active1"/><rect id="task7" rx="3" ry="3" x="150" y="194" width="0" height="20" transform-origin="150px 204px" class="task active2"/><rect id="task8" rx="3" ry="3" x="150" y="218" width="0" height="20" transform-origin="150px 228px" class="task active3"/><rect id="task9" rx="3" ry="3" x="150" y="242" width="0" height="20" transform-origin="150px 252px" class="task active0"/><rect id="task10" rx="3" ry="3" x="150" y="266" width="12" height="20" transform-origin="156px 276px" class="task active1"/><rect id="task11" rx="3" ry="3" x="150" y="290" width="0" height="20" transform-origin="150px 300px" class="task active2"/><rect id="task12" rx="3" ry="3" x="150" y="314" width="5" height="20" transform-origin="152.5px 324px" class="task active3"/><rect id="task13" rx="3" ry="3" x="150" y="338" width="0" height="20" transform-origin="150px 348px" class="task active0"/><rect id="task14" rx="3" ry="3" x="150" y="362" width="0" height="20" transform-origin="150px 372px" class="task active1"/><rect id="task15" rx="3" ry="3" x="150" y="386" width="0" height="20" transform-origin="150px 396px" class="task active2"/><rect id="task16" rx="3" ry="3" x="150" y="410" width="0" height="20" transform-origin="150px 420px" class="task active3"/><rect id="task17" rx="3" ry="3" x="150" y="434" width="16" height="20" transform-origin="158px 444px" class="task active0"/><rect id="task18" rx="3" ry="3" x="150" y="458" width="194" height="20" transform-origin="247px 468px" class="task active1"/><rect id="task19" rx="3" ry="3" x="150" y="482" width="1" height="20" transform-origin="150.5px 492px" class="task active2"/><rect id="task20" rx="3" ry="3" x="150" y="506" width="28" height="20" transform-origin="164px 516px" class="task active3"/><rect id="task21" rx="3" ry="3" x="150" y="530" width="2" height="20" transform-origin="151px 540px" class="task active0"/><rect id="task22" rx="3" ry="3" x="150" y="554" width="0" height="20" transform-origin="150px 564px" class="task active1"/><rect id="task23" rx="3" ry="3" x="150" y="578" width="53" height="20" transform-origin="176.5px 588px" class="task active2"/><rect id="task24" rx="3" ry="3" x="150" y="602" width="0" height="20" transform-origin="150px 612px" class="task active3"/><rect id="task25" rx="3" ry="3" x="150" y="626" width="4" height="20" transform-origin="152px 636px" class="task active0"/><rect id="task26" rx="3" ry="3" x="150" y="650" width="8" height="20" transform-origin="154px 660px" class="task active1"/><rect id="task27" rx="3" ry="3" x="150" y="674" width="11" height="20" transform-origin="155.5px 684px" class="task active2"/><rect id="task28" rx="3" ry="3" x="150" y="698" width="414" height="20" transform-origin="357px 708px" class="task active3"/><rect id="task29" rx="3" ry="3" x="150" y="722" width="0" height="20" transform-origin="150px 732px" class="task active0"/><rect id="task30" rx="3" ry="3" x="150" y="746" width="0" height="20" transform-origin="150px 756px" class="task active1"/><rect id="task31" rx="3" ry="3" x="150" y="770" width="2" height="20" transform-origin="151px 780px" class="task active2"/><rect id="task32" rx="3" ry="3" x="150" y="794" width="1" height="20" transform-origin="150.5px 804px" class="task active3"/><rect id="task33" rx="3" ry="3" x="150" y="818" width="2" height="20" transform-origin="151px 828px" class="task active0"/><rect id="task34" rx="3" ry="3" x="150" y="842" width="197" height="20" transform-origin="248.5px 852px" class="task active1"/><rect id="task35" rx="3" ry="3" x="150" y="866" width="0" height="20" transform-origin="150px 876px" class="task active2"/><rect id="task36" rx="3" ry="3" x="150" y="890" width="250" height="20" transform-origin="275px 900px" class="task crit3"/><rect id="task37" rx="3" ry="3" x="150" y="914" width="559" height="20" transform-origin="429.5px 924px" class="task crit0"/><rect id="task38" rx="3" ry="3" x="150" y="938" width="12" height="20" transform-origin="156px 948px" class="task active1"/><rect id="task39" rx="3" ry="3" x="150" y="962" width="1" height="20" transform-origin="150.5px 972px" class="task active2"/><rect id="task40" rx="3" ry="3" x="150" y="986" width="0" height="20" transform-origin="150px 996px" class="task active3"/><rect id="task41" rx="3" ry="3" x="150" y="1010" width="20" height="20" transform-origin="160px 1020px" class="task active0"/><rect id="task42" rx="3" ry="3" x="150" y="1034" width="132" height="20" transform-origin="216px 1044px" class="task crit1"/><rect id="task43" rx="3" ry="3" x="150" y="1058" width="0" height="20" transform-origin="150px 1068px" class="task active2"/><rect id="task44" rx="3" ry="3" x="150" y="1082" width="108" height="20" transform-origin="204px 1092px" class="task crit3"/><rect id="task45" rx="3" ry="3" x="150" y="1106" width="559" height="20" transform-origin="429.5px 1116px" class="task crit0"/><rect id="task46" rx="3" ry="3" x="150" y="1130" width="292" height="20" transform-origin="296px 1140px" class="task crit1"/><rect id="task47" rx="3" ry="3" x="150" y="1154" width="559" height="20" transform-origin="429.5px 1164px" class="task crit2"/><rect id="task48" rx="3" ry="3" x="150" y="1178" width="318" height="20" transform-origin="309px 1188px" class="task crit3"/><rect id="task49" rx="3" ry="3" x="150" y="1202" width="36" height="20" transform-origin="168px 1212px" class="task active0"/><rect id="task50" rx="3" ry="3" x="150" y="1226" width="559" height="20" transform-origin="429.5px 1236px" class="task crit1"/><rect id="task51" rx="3" ry="3" x="150" y="1250" width="0" height="20" transform-origin="150px 1260px" class="task active2"/><rect id="task52" rx="3" ry="3" x="150" y="1274" width="1" height="20" transform-origin="150.5px 1284px" class="task active3"/><rect id="task53" rx="3" ry="3" x="150" y="1298" width="119" height="20" transform-origin="209.5px 1308px" class="task crit0"/><rect id="task54" rx="3" ry="3" x="150" y="1322" width="2" height="20" transform-origin="151px 1332px" class="task active1"/><rect id="task55" rx="3" ry="3" x="150" y="1346" width="6" height="20" transform-origin="153px 1356px" class="task active2"/><rect id="task56" rx="3" ry="3" x="150" y="1370" width="1" height="20" transform-origin="150.5px 1380px" class="task active3"/><rect id="task57" rx="3" ry="3" x="150" y="1394" width="559" height="20" transform-origin="429.5px 1404px" class="task crit0"/><rect id="task58" rx="3" ry="3" x="150" y="1418" width="103" height="20" transform-origin="201.5px 1428px" class="task active1"/><rect id="task59" rx="3" ry="3" x="150" y="1442" width="1" height="20" transform-origin="150.5px 1452px" class="task active2"/><rect id="task60" rx="3" ry="3" x="150" y="1466" width="559" height="20" transform-origin="429.5px 1476px" class="task crit3"/><rect id="task61" rx="3" ry="3" x="150" y="1490" width="559" height="20" transform-origin="429.5px 1500px" class="task crit0"/><rect id="task62" rx="3" ry="3" x="150" y="1514" width="1" height="20" transform-origin="150.5px 1524px" class="task active1"/><rect id="task63" rx="3" ry="3" x="150" y="1538" width="3" height="20" transform-origin="151.5px 1548px" class="task active2"/><rect id="task64" rx="3" ry="3" x="150" y="1562" width="185" height="20" transform-origin="242.5px 1572px" class="task crit3"/><rect id="task65" rx="3" ry="3" x="150" y="1586" width="33" height="20" transform-origin="166.5px 1596px" class="task active0"/><rect id="task66" rx="3" ry="3" x="150" y="1610" width="559" height="20" transform-origin="429.5px 1620px" class="task crit1"/><rect id="task67" rx="3" ry="3" x="150" y="1634" width="5" height="20" transform-origin="152.5px 1644px" class="task active2"/><rect id="task68" rx="3" ry="3" x="150" y="1658" width="120" height="20" transform-origin="210px 1668px" class="task crit3"/><rect id="task69" rx="3" ry="3" x="150" y="1682" width="559" height="20" transform-origin="429.5px 1692px" class="task crit0"/><rect id="task70" rx="3" ry="3" x="150" y="1706" width="5" height="20" transform-origin="152.5px 1716px" class="task active1"/><rect id="task71" rx="3" ry="3" x="150" y="1730" width="97" height="20" transform-origin="198.5px 1740px" class="task crit2"/><rect id="task72" rx="3" ry="3" x="150" y="1754" width="559" height="20" transform-origin="429.5px 1764px" class="task crit3"/><rect id="task73" rx="3" ry="3" x="150" y="1778" width="559" height="20" transform-origin="429.5px 1788px" class="task crit0"/><rect id="task74" rx="3" ry="3" x="150" y="1802" width="559" height="20" transform-origin="429.5px 1812px" class="task crit1"/><rect id="task75" rx="3" ry="3" x="150" y="1826" width="559" height="20" transform-origin="429.5px 1836px" class="task crit2"/><rect id="task76" rx="3" ry="3" x="150" y="1850" width="150" height="20" transform-origin="225px 1860px" class="task crit3"/><rect id="task77" rx="3" ry="3" x="150" y="1874" width="50" height="20" transform-origin="175px 1884px" class="task active0"/><rect id="task78" rx="3" ry="3" x="150" y="1898" width="559" height="20" transform-origin="429.5px 1908px" class="task crit1"/><rect id="task79" rx="3" ry="3" x="150" y="1922" width="268" height="20" transform-origin="284px 1932px" class="task active2"/><rect id="task80" rx="3" ry="3" x="150" y="1946" width="136" height="20" transform-origin="218px 1956px" class="task crit3"/><rect id="task81" rx="3" ry="3" x="150" y="1970" width="559" height="20" transform-origin="429.5px 1980px" class="task crit0"/><rect id="task82" rx="3" ry="3" x="150" y="1994" width="559" height="20" transform-origin="429.5px 2004px" class="task crit1"/><rect id="task83" rx="3" ry="3" x="151" y="35" width="1.6" height="2032" transform-origin="430px 2028px" class="task vert  task1"/><text id="task1-text" font-size="11" x="155" y="63.5" class="taskTextOutsideRight taskTextOutside0 activeText0 width-31.5">0.170 </text><text id="task2-text" font-size="11" x="155" y="87.5" class="taskTextOutsideRight taskTextOutside1 activeText1 width-31.5">0.478 </text><text id="task3-text" font-size="11" x="155" y="111.5" class="taskTextOutsideRight taskTextOutside2 activeText2 width-31.5">0.157 </text><text id="task4-text" font-size="11" x="155" y="135.5" class="taskTextOutsideRight taskTextOutside3 activeText3 width-31.5">0.171 </text><text id="task5-text" font-size="11" x="155" y="159.5" class="taskTextOutsideRight taskTextOutside0 activeText0 width-31.5">0.709 </text><text id="task6-text" font-size="11" x="155" y="183.5" class="taskTextOutsideRight taskTextOutside1 activeText1 width-31.5">1.706 </text><text id="task7-text" font-size="11" x="155" y="207.5" class="taskTextOutsideRight taskTextOutside2 activeText2 width-31.5">0.229 </text><text id="task8-text" font-size="11" x="155" y="231.5" class="taskTextOutsideRight taskTextOutside3 activeText3 width-31.5">1.053 </text><text id="task9-text" font-size="11" x="155" y="255.5" class="taskTextOutsideRight taskTextOutside0 activeText0 width-31.5">0.282 </text><text id="task10-text" font-size="11" x="167" y="279.5" class="taskTextOutsideRight taskTextOutside1 activeText1 width-38.5">63.403 </text><text id="task11-text" font-size="11" x="155" y="303.5" class="taskTextOutsideRight taskTextOutside2 activeText2 width-31.5">0.386 </text><text id="task12-text" font-size="11" x="160" y="327.5" class="taskTextOutsideRight taskTextOutside3 activeText3 width-38.5">25.598 </text><text id="task13-text" font-size="11" x="155" y="351.5" class="taskTextOutsideRight taskTextOutside0 activeText0 width-31.5">0.475 </text><text id="task14-text" font-size="11" x="155" y="375.5" class="taskTextOutsideRight taskTextOutside1 activeText1 width-31.5">0.710 </text><text id="task15-text" font-size="11" x="155" y="399.5" class="taskTextOutsideRight taskTextOutside2 activeText2 width-31.5">0.395 </text><text id="task16-text" font-size="11" x="155" y="423.5" class="taskTextOutsideRight taskTextOutside3 activeText3 width-31.5">0.256 </text><text id="task17-text" font-size="11" x="171" y="447.5" class="taskTextOutsideRight taskTextOutside0 activeText0 width-38.5">85.578 </text><text id="task18-text" font-size="11" x="247" y="471.5" class="taskText taskText1 activeText1 width-52.5">1043.913 </text><text id="task19-text" font-size="11" x="156" y="495.5" class="taskTextOutsideRight taskTextOutside2 activeText2 width-31.5">7.940 </text><text id="task20-text" font-size="11" x="183" y="519.5" class="taskTextOutsideRight taskTextOutside3 activeText3 width-45.5">151.425 </text><text id="task21-text" font-size="11" x="157" y="543.5" class="taskTextOutsideRight taskTextOutside0 activeText0 width-31.5">8.609 </text><text id="task22-text" font-size="11" x="155" y="567.5" class="taskTextOutsideRight taskTextOutside1 activeText1 width-31.5">0.529 </text><text id="task23-text" font-size="11" x="176.5" y="591.5" class="taskText taskText2 activeText2 width-45.5">283.043 </text><text id="task24-text" font-size="11" x="155" y="615.5" class="taskTextOutsideRight taskTextOutside3 activeText3 width-31.5">0.754 </text><text id="task25-text" font-size="11" x="159" y="639.5" class="taskTextOutsideRight taskTextOutside0 activeText0 width-38.5">21.717 </text><text id="task26-text" font-size="11" x="163" y="663.5" class="taskTextOutsideRight taskTextOutside1 activeText1 width-38.5">44.628 </text><text id="task27-text" font-size="11" x="166" y="687.5" class="taskTextOutsideRight taskTextOutside2 activeText2 width-38.5">59.212 </text><text id="task28-text" font-size="11" x="357" y="711.5" class="taskText taskText3 activeText3 width-52.5">2220.527 </text><text id="task29-text" font-size="11" x="155" y="735.5" class="taskTextOutsideRight taskTextOutside0 activeText0 width-31.5">1.407 </text><text id="task30-text" font-size="11" x="155" y="759.5" class="taskTextOutsideRight taskTextOutside1 activeText1 width-31.5">1.327 </text><text id="task31-text" font-size="11" x="157" y="783.5" class="taskTextOutsideRight taskTextOutside2 activeText2 width-38.5">10.320 </text><text id="task32-text" font-size="11" x="156" y="807.5" class="taskTextOutsideRight taskTextOutside3 activeText3 width-31.5">5.918 </text><text id="task33-text" font-size="11" x="157" y="831.5" class="taskTextOutsideRight taskTextOutside0 activeText0 width-38.5">11.324 </text><text id="task34-text" font-size="11" x="248.5" y="855.5" class="taskText taskText1 activeText1 width-52.5">1058.741 </text><text id="task35-text" font-size="11" x="155" y="879.5" class="taskTextOutsideRight taskTextOutside2 activeText2 width-31.5">1.428 </text><text id="task36-text" font-size="11" x="275" y="903.5" class="taskText taskText3  critText3 width-52.5">1340.870 </text><text id="task37-text" font-size="11" x="429.5" y="927.5" class="taskText taskText0  critText0 width-52.5">3001.008 </text><text id="task38-text" font-size="11" x="167" y="951.5" class="taskTextOutsideRight taskTextOutside1 activeText1 width-38.5">65.168 </text><text id="task39-text" font-size="11" x="156" y="975.5" class="taskTextOutsideRight taskTextOutside2 activeText2 width-31.5">5.731 </text><text id="task40-text" font-size="11" x="155" y="999.5" class="taskTextOutsideRight taskTextOutside3 activeText3 width-31.5">1.580 </text><text id="task41-text" font-size="11" x="175" y="1023.5" class="taskTextOutsideRight taskTextOutside0 activeText0 width-45.5">106.937 </text><text id="task42-text" font-size="11" x="216" y="1047.5" class="taskText taskText1  critText1 width-45.5">708.432 </text><text id="task43-text" font-size="11" x="155" y="1071.5" class="taskTextOutsideRight taskTextOutside2 activeText2 width-31.5">2.362 </text><text id="task44-text" font-size="11" x="204" y="1095.5" class="taskText taskText3  critText3 width-45.5">578.215 </text><text id="task45-text" font-size="11" x="429.5" y="1119.5" class="taskText taskText0  critText0 width-52.5">3001.008 </text><text id="task46-text" font-size="11" x="296" y="1143.5" class="taskText taskText1  critText1 width-52.5">1568.302 </text><text id="task47-text" font-size="11" x="429.5" y="1167.5" class="taskText taskText2  critText2 width-52.5">3001.008 </text><text id="task48-text" font-size="11" x="309" y="1191.5" class="taskText taskText3  critText3 width-52.5">1709.464 </text><text id="task49-text" font-size="11" x="191" y="1215.5" class="taskTextOutsideRight taskTextOutside0 activeText0 width-45.5">192.062 </text><text id="task50-text" font-size="11" x="429.5" y="1239.5" class="taskText taskText1  critText1 width-52.5">3001.008 </text><text id="task51-text" font-size="11" x="155" y="1263.5" class="taskTextOutsideRight taskTextOutside2 activeText2 width-31.5">1.944 </text><text id="task52-text" font-size="11" x="156" y="1287.5" class="taskTextOutsideRight taskTextOutside3 activeText3 width-31.5">5.720 </text><text id="task53-text" font-size="11" x="209.5" y="1311.5" class="taskText taskText0  critText0 width-45.5">637.218 </text><text id="task54-text" font-size="11" x="157" y="1335.5" class="taskTextOutsideRight taskTextOutside1 activeText1 width-38.5">10.636 </text><text id="task55-text" font-size="11" x="161" y="1359.5" class="taskTextOutsideRight taskTextOutside2 activeText2 width-38.5">29.652 </text><text id="task56-text" font-size="11" x="156" y="1383.5" class="taskTextOutsideRight taskTextOutside3 activeText3 width-31.5">5.554 </text><text id="task57-text" font-size="11" x="429.5" y="1407.5" class="taskText taskText0  critText0 width-52.5">3001.008 </text><text id="task58-text" font-size="11" x="201.5" y="1431.5" class="taskText taskText1 activeText1 width-45.5">553.693 </text><text id="task59-text" font-size="11" x="156" y="1455.5" class="taskTextOutsideRight taskTextOutside2 activeText2 width-31.5">3.241 </text><text id="task60-text" font-size="11" x="429.5" y="1479.5" class="taskText taskText3  critText3 width-52.5">3001.009 </text><text id="task61-text" font-size="11" x="429.5" y="1503.5" class="taskText taskText0  critText0 width-52.5">3001.009 </text><text id="task62-text" font-size="11" x="156" y="1527.5" class="taskTextOutsideRight taskTextOutside1 activeText1 width-31.5">4.623 </text><text id="task63-text" font-size="11" x="158" y="1551.5" class="taskTextOutsideRight taskTextOutside2 activeText2 width-38.5">17.865 </text><text id="task64-text" font-size="11" x="242.5" y="1575.5" class="taskText taskText3  critText3 width-45.5">991.940 </text><text id="task65-text" font-size="11" x="188" y="1599.5" class="taskTextOutsideRight taskTextOutside0 activeText0 width-45.5">175.091 </text><text id="task66-text" font-size="11" x="429.5" y="1623.5" class="taskText taskText1  critText1 width-52.5">3001.008 </text><text id="task67-text" font-size="11" x="160" y="1647.5" class="taskTextOutsideRight taskTextOutside2 activeText2 width-38.5">25.698 </text><text id="task68-text" font-size="11" x="210" y="1671.5" class="taskText taskText3  critText3 width-45.5">641.854 </text><text id="task69-text" font-size="11" x="429.5" y="1695.5" class="taskText taskText0  critText0 width-52.5">3001.015 </text><text id="task70-text" font-size="11" x="160" y="1719.5" class="taskTextOutsideRight taskTextOutside1 activeText1 width-38.5">27.543 </text><text id="task71-text" font-size="11" x="198.5" y="1743.5" class="taskText taskText2  critText2 width-45.5">521.212 </text><text id="task72-text" font-size="11" x="429.5" y="1767.5" class="taskText taskText3  critText3 width-52.5">3001.008 </text><text id="task73-text" font-size="11" x="429.5" y="1791.5" class="taskText taskText0  critText0 width-52.5">3001.009 </text><text id="task74-text" font-size="11" x="429.5" y="1815.5" class="taskText taskText1  critText1 width-52.5">3001.008 </text><text id="task75-text" font-size="11" x="429.5" y="1839.5" class="taskText taskText2  critText2 width-52.5">3001.015 </text><text id="task76-text" font-size="11" x="225" y="1863.5" class="taskText taskText3  critText3 width-45.5">804.178 </text><text id="task77-text" font-size="11" x="175" y="1887.5" class="taskText taskText0 activeText0 width-45.5">267.847 </text><text id="task78-text" font-size="11" x="429.5" y="1911.5" class="taskText taskText1  critText1 width-52.5">3001.039 </text><text id="task79-text" font-size="11" x="284" y="1935.5" class="taskText taskText2 activeText2 width-52.5">1439.894 </text><text id="task80-text" font-size="11" x="218" y="1959.5" class="taskText taskText3  critText3 width-45.5">729.424 </text><text id="task81-text" font-size="11" x="429.5" y="1983.5" class="taskText taskText0  critText0 width-52.5">3001.009 </text><text id="task82-text" font-size="11" x="429.5" y="2007.5" class="taskText taskText1  critText1 width-52.5">3001.016 </text><text id="task83-text" font-size="11" x="151" y="2087" class="taskText taskText1  vertText width-14.71923828125">TL </text></g><g><text dy="0em" x="10" y="62" font-size="11" class="sectionTitle sectionTitle0"><tspan alignment-baseline="central" x="10">afiro</tspan></text><text dy="0em" x="10" y="86" font-size="11" class="sectionTitle sectionTitle1"><tspan alignment-baseline="central" x="10">kb2</tspan></text><text dy="0em" x="10" y="110" font-size="11" class="sectionTitle sectionTitle2"><tspan alignment-baseline="central" x="10">sc50a</tspan></text><text dy="0em" x="10" y="134" font-size="11" class="sectionTitle sectionTitle3"><tspan alignment-baseline="central" x="10">sc50b</tspan></text><text dy="0em" x="10" y="158" font-size="11" class="sectionTitle sectionTitle0"><tspan alignment-baseline="central" x="10">adlittle</tspan></text><text dy="0em" x="10" y="182" font-size="11" class="sectionTitle sectionTitle1"><tspan alignment-baseline="central" x="10">share2b</tspan></text><text dy="0em" x="10" y="206" font-size="11" class="sectionTitle sectionTitle2"><tspan alignment-baseline="central" x="10">sc105</tspan></text><text dy="0em" x="10" y="230" font-size="11" class="sectionTitle sectionTitle3"><tspan alignment-baseline="central" x="10">stocfor1</tspan></text><text dy="0em" x="10" y="254" font-size="11" class="sectionTitle sectionTitle0"><tspan alignment-baseline="central" x="10">scagr7</tspan></text><text dy="0em" x="10" y="278" font-size="11" class="sectionTitle sectionTitle1"><tspan alignment-baseline="central" x="10">israel</tspan></text><text dy="0em" x="10" y="302" font-size="11" class="sectionTitle sectionTitle2"><tspan alignment-baseline="central" x="10">recipelp</tspan></text><text dy="0em" x="10" y="326" font-size="11" class="sectionTitle sectionTitle3"><tspan alignment-baseline="central" x="10">share1b</tspan></text><text dy="0em" x="10" y="350" font-size="11" class="sectionTitle sectionTitle0"><tspan alignment-baseline="central" x="10">sc205</tspan></text><text dy="0em" x="10" y="374" font-size="11" class="sectionTitle sectionTitle1"><tspan alignment-baseline="central" x="10">beaconfd</tspan></text><text dy="0em" x="10" y="398" font-size="11" class="sectionTitle sectionTitle2"><tspan alignment-baseline="central" x="10">lotfi</tspan></text><text dy="0em" x="10" y="422" font-size="11" class="sectionTitle sectionTitle3"><tspan alignment-baseline="central" x="10">vtp-base</tspan></text><text dy="0em" x="10" y="446" font-size="11" class="sectionTitle sectionTitle0"><tspan alignment-baseline="central" x="10">brandy</tspan></text><text dy="0em" x="10" y="470" font-size="11" class="sectionTitle sectionTitle1"><tspan alignment-baseline="central" x="10">e226</tspan></text><text dy="0em" x="10" y="494" font-size="11" class="sectionTitle sectionTitle2"><tspan alignment-baseline="central" x="10">bore3d</tspan></text><text dy="0em" x="10" y="518" font-size="11" class="sectionTitle sectionTitle3"><tspan alignment-baseline="central" x="10">grow7</tspan></text><text dy="0em" x="10" y="542" font-size="11" class="sectionTitle sectionTitle0"><tspan alignment-baseline="central" x="10">capri</tspan></text><text dy="0em" x="10" y="566" font-size="11" class="sectionTitle sectionTitle1"><tspan alignment-baseline="central" x="10">scorpion</tspan></text><text dy="0em" x="10" y="590" font-size="11" class="sectionTitle sectionTitle2"><tspan alignment-baseline="central" x="10">bandm</tspan></text><text dy="0em" x="10" y="614" font-size="11" class="sectionTitle sectionTitle3"><tspan alignment-baseline="central" x="10">sctap1</tspan></text><text dy="0em" x="10" y="638" font-size="11" class="sectionTitle sectionTitle0"><tspan alignment-baseline="central" x="10">scfxm1</tspan></text><text dy="0em" x="10" y="662" font-size="11" class="sectionTitle sectionTitle1"><tspan alignment-baseline="central" x="10">agg2</tspan></text><text dy="0em" x="10" y="686" font-size="11" class="sectionTitle sectionTitle2"><tspan alignment-baseline="central" x="10">agg3</tspan></text><text dy="0em" x="10" y="710" font-size="11" class="sectionTitle sectionTitle3"><tspan alignment-baseline="central" x="10">stair</tspan></text><text dy="0em" x="10" y="734" font-size="11" class="sectionTitle sectionTitle0"><tspan alignment-baseline="central" x="10">scsd1</tspan></text><text dy="0em" x="10" y="758" font-size="11" class="sectionTitle sectionTitle1"><tspan alignment-baseline="central" x="10">scagr25</tspan></text><text dy="0em" x="10" y="782" font-size="11" class="sectionTitle sectionTitle2"><tspan alignment-baseline="central" x="10">degen2</tspan></text><text dy="0em" x="10" y="806" font-size="11" class="sectionTitle sectionTitle3"><tspan alignment-baseline="central" x="10">finnis</tspan></text><text dy="0em" x="10" y="830" font-size="11" class="sectionTitle sectionTitle0"><tspan alignment-baseline="central" x="10">etamacro</tspan></text><text dy="0em" x="10" y="854" font-size="11" class="sectionTitle sectionTitle1"><tspan alignment-baseline="central" x="10">fffff800</tspan></text><text dy="0em" x="10" y="878" font-size="11" class="sectionTitle sectionTitle2"><tspan alignment-baseline="central" x="10">standata</tspan></text><text dy="0em" x="10" y="902" font-size="11" class="sectionTitle sectionTitle3"><tspan alignment-baseline="central" x="10">grow15</tspan></text><text dy="0em" x="10" y="926" font-size="11" class="sectionTitle sectionTitle0"><tspan alignment-baseline="central" x="10">pilot4</tspan></text><text dy="0em" x="10" y="950" font-size="11" class="sectionTitle sectionTitle1"><tspan alignment-baseline="central" x="10">scfxm2</tspan></text><text dy="0em" x="10" y="974" font-size="11" class="sectionTitle sectionTitle2"><tspan alignment-baseline="central" x="10">standmps</tspan></text><text dy="0em" x="10" y="998" font-size="11" class="sectionTitle sectionTitle3"><tspan alignment-baseline="central" x="10">standgub</tspan></text><text dy="0em" x="10" y="1022" font-size="11" class="sectionTitle sectionTitle0"><tspan alignment-baseline="central" x="10">scrs8</tspan></text><text dy="0em" x="10" y="1046" font-size="11" class="sectionTitle sectionTitle1"><tspan alignment-baseline="central" x="10">bnl1</tspan></text><text dy="0em" x="10" y="1070" font-size="11" class="sectionTitle sectionTitle2"><tspan alignment-baseline="central" x="10">ship04s</tspan></text><text dy="0em" x="10" y="1094" font-size="11" class="sectionTitle sectionTitle3"><tspan alignment-baseline="central" x="10">fit1d</tspan></text><text dy="0em" x="10" y="1118" font-size="11" class="sectionTitle sectionTitle0"><tspan alignment-baseline="central" x="10">perold</tspan></text><text dy="0em" x="10" y="1142" font-size="11" class="sectionTitle sectionTitle1"><tspan alignment-baseline="central" x="10">grow22</tspan></text><text dy="0em" x="10" y="1166" font-size="11" class="sectionTitle sectionTitle2"><tspan alignment-baseline="central" x="10">maros</tspan></text><text dy="0em" x="10" y="1190" font-size="11" class="sectionTitle sectionTitle3"><tspan alignment-baseline="central" x="10">modszk1</tspan></text><text dy="0em" x="10" y="1214" font-size="11" class="sectionTitle sectionTitle0"><tspan alignment-baseline="central" x="10">scfxm3</tspan></text><text dy="0em" x="10" y="1238" font-size="11" class="sectionTitle sectionTitle1"><tspan alignment-baseline="central" x="10">25fv47</tspan></text><text dy="0em" x="10" y="1262" font-size="11" class="sectionTitle sectionTitle2"><tspan alignment-baseline="central" x="10">shell</tspan></text><text dy="0em" x="10" y="1286" font-size="11" class="sectionTitle sectionTitle3"><tspan alignment-baseline="central" x="10">ship04l</tspan></text><text dy="0em" x="10" y="1310" font-size="11" class="sectionTitle sectionTitle0"><tspan alignment-baseline="central" x="10">wood1p</tspan></text><text dy="0em" x="10" y="1334" font-size="11" class="sectionTitle sectionTitle1"><tspan alignment-baseline="central" x="10">sctap2</tspan></text><text dy="0em" x="10" y="1358" font-size="11" class="sectionTitle sectionTitle2"><tspan alignment-baseline="central" x="10">scsd8</tspan></text><text dy="0em" x="10" y="1382" font-size="11" class="sectionTitle sectionTitle3"><tspan alignment-baseline="central" x="10">ship08s</tspan></text><text dy="0em" x="10" y="1406" font-size="11" class="sectionTitle sectionTitle0"><tspan alignment-baseline="central" x="10">pilot-ja</tspan></text><text dy="0em" x="10" y="1430" font-size="11" class="sectionTitle sectionTitle1"><tspan alignment-baseline="central" x="10">degen3</tspan></text><text dy="0em" x="10" y="1454" font-size="11" class="sectionTitle sectionTitle2"><tspan alignment-baseline="central" x="10">ganges</tspan></text><text dy="0em" x="10" y="1478" font-size="11" class="sectionTitle sectionTitle3"><tspan alignment-baseline="central" x="10">pilotnov</tspan></text><text dy="0em" x="10" y="1502" font-size="11" class="sectionTitle sectionTitle0"><tspan alignment-baseline="central" x="10">pilot-we</tspan></text><text dy="0em" x="10" y="1526" font-size="11" class="sectionTitle sectionTitle1"><tspan alignment-baseline="central" x="10">ship12s</tspan></text><text dy="0em" x="10" y="1550" font-size="11" class="sectionTitle sectionTitle2"><tspan alignment-baseline="central" x="10">sctap3</tspan></text><text dy="0em" x="10" y="1574" font-size="11" class="sectionTitle sectionTitle3"><tspan alignment-baseline="central" x="10">stocfor2</tspan></text><text dy="0em" x="10" y="1598" font-size="11" class="sectionTitle sectionTitle0"><tspan alignment-baseline="central" x="10">czprob</tspan></text><text dy="0em" x="10" y="1622" font-size="11" class="sectionTitle sectionTitle1"><tspan alignment-baseline="central" x="10">cycle</tspan></text><text dy="0em" x="10" y="1646" font-size="11" class="sectionTitle sectionTitle2"><tspan alignment-baseline="central" x="10">ship08l</tspan></text><text dy="0em" x="10" y="1670" font-size="11" class="sectionTitle sectionTitle3"><tspan alignment-baseline="central" x="10">bnl2</tspan></text><text dy="0em" x="10" y="1694" font-size="11" class="sectionTitle sectionTitle0"><tspan alignment-baseline="central" x="10">pilot</tspan></text><text dy="0em" x="10" y="1718" font-size="11" class="sectionTitle sectionTitle1"><tspan alignment-baseline="central" x="10">ship12l</tspan></text><text dy="0em" x="10" y="1742" font-size="11" class="sectionTitle sectionTitle2"><tspan alignment-baseline="central" x="10">d6cube</tspan></text><text dy="0em" x="10" y="1766" font-size="11" class="sectionTitle sectionTitle3"><tspan alignment-baseline="central" x="10">d2q06c</tspan></text><text dy="0em" x="10" y="1790" font-size="11" class="sectionTitle sectionTitle0"><tspan alignment-baseline="central" x="10">greenbeb</tspan></text><text dy="0em" x="10" y="1814" font-size="11" class="sectionTitle sectionTitle1"><tspan alignment-baseline="central" x="10">greenbea</tspan></text><text dy="0em" x="10" y="1838" font-size="11" class="sectionTitle sectionTitle2"><tspan alignment-baseline="central" x="10">pilot87</tspan></text><text dy="0em" x="10" y="1862" font-size="11" class="sectionTitle sectionTitle3"><tspan alignment-baseline="central" x="10">woodw</tspan></text><text dy="0em" x="10" y="1886" font-size="11" class="sectionTitle sectionTitle0"><tspan alignment-baseline="central" x="10">truss</tspan></text><text dy="0em" x="10" y="1910" font-size="11" class="sectionTitle sectionTitle1"><tspan alignment-baseline="central" x="10">maros-r7</tspan></text><text dy="0em" x="10" y="1934" font-size="11" class="sectionTitle sectionTitle2"><tspan alignment-baseline="central" x="10">80bau3b</tspan></text><text dy="0em" x="10" y="1958" font-size="11" class="sectionTitle sectionTitle3"><tspan alignment-baseline="central" x="10">fit2d</tspan></text><text dy="0em" x="10" y="1982" font-size="11" class="sectionTitle sectionTitle0"><tspan alignment-baseline="central" x="10">fit2p</tspan></text><text dy="0em" x="10" y="2018" font-size="11" class="sectionTitle sectionTitle1"><tspan alignment-baseline="central" x="10">qap15</tspan></text></g><g class="today"><line x1="330612" x2="330612" y1="25" y2="2067" class="today"/></g><text x="392" y="25" class="titleText">netlib-linprogq (s)</text></svg>