<svg aria-roledescription="gantt" role="graphics-document document" style="max-width: 784px; background-color: white;" viewBox="0 0 784 2092" xmlns:xlink="http://www.w3.org/1999/xlink" xmlns="http://www.w3.org/2000/svg" width="100%" id="my-svg"><style>#my-svg{font-family:"trebuchet ms",verdana,arial,sans-serif;font-size:16px;fill:#333;}@keyframes edge-animation-frame{from{stroke-dashoffset:0;}}@keyframes dash{to{stroke-dashoffset:0;}}#my-svg .edge-animation-slow{stroke-dasharray:9,5!important;stroke-dashoffset:900;animation:dash 50s linear infinite;stroke-linecap:round;}#my-svg .edge-animation-fast{stroke-dasharray:9,5!important;stroke-dashoffset:900;animation:dash 20s linear infinite;stroke-linecap:round;}#my-svg .error-icon{fill:#552222;}#my-svg .error-text{fill:#552222;stroke:#552222;}#my-svg .edge-thickness-normal{stroke-width:1px;}#my-svg .edge-thickness-thick{stroke-width:3.5px;}#my-svg .edge-pattern-solid{stroke-dasharray:0;}#my-svg .edge-thickness-invisible{stroke-width:0;fill:none;}#my-svg .edge-pattern-dashed{stroke-dasharray:3;}#my-svg .edge-pattern-dotted{stroke-dasharray:2;}#my-svg .marker{fill:#333333;stroke:#333333;}#my-svg .marker.cross{stroke:#333333;}#my-svg svg{font-family:"trebuchet ms",verdana,arial,sans-serif;font-size:16px;}#my-svg p{margin:0;}#my-svg .mermaid-main-font{font-family:"trebuchet ms",verdana,arial,sans-serif;}#my-svg .exclude-range{fill:#eeeeee;}#my-svg .section{stroke:none;opacity:0.2;}#my-svg .section0{fill:rgba(102, 102, 255, 0.49);}#my-svg .section2{fill:#fff400;}#my-svg .section1,#my-svg .section3{fill:white;opacity:0.2;}#my-svg .sectionTitle0{fill:#333;}#my-svg .sectionTitle1{fill:#333;}#my-svg .sectionTitle2{fill:#333;}#my-svg .sectionTitle3{fill:#333;}#my-svg .sectionTitle{text-anchor:start;font-family:"trebuchet ms",verdana,arial,sans-serif;}#my-svg .grid .tick{stroke:lightgrey;opacity:0.8;shape-rendering:crispEdges;}#my-svg .grid .tick text{font-family:"trebuchet ms",verdana,arial,sans-serif;fill:#333;}#my-svg .grid path{stroke-width:0;}#my-svg .today{fill:none;stroke:red;stroke-width:2px;}#my-svg .task{stroke-width:2;}#my-svg .taskText{text-anchor:middle;font-family:"trebuchet ms",verdana,arial,sans-serif;}#my-svg .taskTextOutsideRight{fill:black;text-anchor:start;font-family:"trebuchet ms",verdana,arial,sans-serif;}#my-svg .taskTextOutsideLeft{fill:black;text-anchor:end;}#my-svg .task.clickable{cursor:pointer;}#my-svg .taskText.clickable{cursor:pointer;fill:#003163!important;font-weight:bold;}#my-svg .taskTextOutsideLeft.clickable{cursor:pointer;fill:#003163!important;font-weight:bold;}#my-svg .taskTextOutsideRight.clickable{cursor:pointer;fill:#003163!important;font-weight:bold;}#my-svg .taskText0,#my-svg .taskText1,#my-svg .taskText2,#my-svg .taskText3{fill:white;}#my-svg .task0,#my-svg .task1,#my-svg .task2,#my-svg .task3{fill:#8a90dd;stroke:#534fbc;}#my-svg .taskTextOutside0,#my-svg .taskTextOutside2{fill:black;}#my-svg .taskTextOutside1,#my-svg .taskTextOutside3{fill:black;}#my-svg .active0,#my-svg .active1,#my-svg .active2,#my-svg .active3{fill:#bfc7ff;stroke:#534fbc;}#my-svg .activeText0,#my-svg .activeText1,#my-svg .activeText2,#my-svg .activeText3{fill:black!important;}#my-svg .done0,#my-svg .done1,#my-svg .done2,#my-svg .done3{stroke:grey;fill:lightgrey;stroke-width:2;}#my-svg .doneText0,#my-svg .doneText1,#my-svg .doneText2,#my-svg .doneText3{fill:black!important;}#my-svg .crit0,#my-svg .crit1,#my-svg .crit2,#my-svg .crit3{stroke:#ff8888;fill:red;stroke-width:2;}#my-svg .activeCrit0,#my-svg .activeCrit1,#my-svg .activeCrit2,#my-svg .activeCrit3{stroke:#ff8888;fill:#bfc7ff;stroke-width:2;}#my-svg .doneCrit0,#my-svg .doneCrit1,#my-svg .doneCrit2,#my-svg .doneCrit3{stroke:#ff8888;fill:lightgrey;stroke-width:2;cursor:pointer;shape-rendering:crispEdges;}#my-svg .milestone{transform:rotate(45deg) scale(0.8,0.8);}#my-svg .milestoneText{font-style:italic;}#my-svg .doneCritText0,#my-svg .doneCritText1,#my-svg .doneCritText2,#my-svg .doneCritText3{fill:black!important;}#my-svg .vert{stroke:navy;}#my-svg .vertText{font-size:15px;text-anchor:middle;fill:navy!important;}#my-svg .activeCritText0,#my-svg .activeCritText1,#my-svg .activeCritText2,#my-svg .activeCritText3{fill:black!important;}#my-svg .titleText{text-anchor:middle;font-size:18px;fill:#333;font-family:"trebuchet ms",verdana,arial,sans-serif;}#my-svg :root{--mermaid-font-family:"trebuchet ms",verdana,arial,sans-serif;}</style><g/><g text-anchor="middle" font-family="sans-serif" font-size="10" fill="none" transform="translate(150, 2042)" class="grid"><path d="M0.5,-2007V0.5H559.5V-2007" stroke="currentColor" class="domain"/><g transform="translate(48.5,0)" opacity="1" class="tick"><line y2="-2007" stroke="currentColor"/><text style="text-anchor: middle;" font-size="10" stroke="none" dy="1em" y="3" fill="#000"/></g><g transform="translate(160.5,0)" opacity="1" class="tick"><line y2="-2007" stroke="currentColor"/><text style="text-anchor: middle;" font-size="10" stroke="none" dy="1em" y="3" fill="#000"/></g><g transform="translate(273.5,0)" opacity="1" class="tick"><line y2="-2007" stroke="currentColor"/><text style="text-anchor: middle;" font-size="10" stroke="none" dy="1em" y="3" fill="#000"/></g><g transform="translate(386.5,0)" opacity="1" class="tick"><line y2="-2007" stroke="currentColor"/><text style="text-anchor: middle;" font-size="10" stroke="none" dy="1em" y="3" fill="#000"/></g><g transform="translate(498.5,0)" opacity="1" class="tick"><line y2="-2007" stroke="currentColor"/><text style="text-anchor: middle;" font-size="10" stroke="none" dy="1em" y="3" fill="#000"/></g></g><g><rect class="section section0" height="24" width="746.5" y="48" x="0"/><rect class="section section1" height="24" width="746.5" y="72" x="0"/><rect class="section section2" height="24" width="746.5" y="96" x="0"/><rect class="section section3" height="24" width="746.5" y="120" x="0"/><rect class="section section0" height="24" width="746.5" y="144" x="0"/><rect class="section section1" height="24" width="746.5" y="168" x="0"/><rect class="section section2" height="24" width="746.5" y="192" x="0"/><rect class="section section3" height="24" width="746.5" y="216" x="0"/><rect class="section section0" height="24" width="746.5" y="240" x="0"/><rect class="section section1" height="24" width="746.5" y="264" x="0"/><rect class="section section2" height="24" width="746.5" y="288" x="0"/><rect class="section section3" height="24" width="746.5" y="312" x="0"/><rect class="section section0" height="24" width="746.5" y="336" x="0"/><rect class="section section1" height="24" width="746.5" y="360" x="0"/><rect class="section section2" height="24" width="746.5" y="384" x="0"/><rect class="section section3" height="24" width="746.5" y="408" x="0"/><rect class="section section0" height="24" width="746.5" y="432" x="0"/><rect class="section section1" height="24" width="746.5" y="456" x="0"/><rect class="section section2" height="24" width="746.5" y="480" x="0"/><rect class="section section3" height="24" width="746.5" y="504" x="0"/><rect class="section section0" height="24" width="746.5" y="528" x="0"/><rect class="section section1" height="24" width="746.5" y="552" x="0"/><rect class="section section2" height="24" width="746.5" y="576" x="0"/><rect class="section section3" height="24" width="746.5" y="600" x="0"/><rect class="section section0" height="24" width="746.5" y="624" x="0"/><rect class="section section1" height="24" width="746.5" y="648" x="0"/><rect class="section section2" height="24" width="746.5" y="672" x="0"/><rect class="section section3" height="24" width="746.5" y="696" x="0"/><rect class="section section0" height="24" width="746.5" y="720" x="0"/><rect class="section section1" height="24" width="746.5" y="744" x="0"/><rect class="section section2" height="24" width="746.5" y="768" x="0"/><rect class="section section3" height="24" width="746.5" y="792" x="0"/><rect class="section section0" height="24" width="746.5" y="816" x="0"/><rect class="section section1" height="24" width="746.5" y="840" x="0"/><rect class="section section2" height="24" width="746.5" y="864" x="0"/><rect class="section section3" height="24" width="746.5" y="888" x="0"/><rect class="section section0" height="24" width="746.5" y="912" x="0"/><rect class="section section1" height="24" width="746.5" y="936" x="0"/><rect class="section section2" height="24" width="746.5" y="960" x="0"/><rect class="section section3" height="24" width="746.5" y="984" x="0"/><rect class="section section0" height="24" width="746.5" y="1008" x="0"/><rect class="section section1" height="24" width="746.5" y="1032" x="0"/><rect class="section section2" height="24" width="746.5" y="1056" x="0"/><rect class="section section3" height="24" width="746.5" y="1080" x="0"/><rect class="section section0" height="24" width="746.5" y="1104" x="0"/><rect class="section section1" height="24" width="746.5" y="1128" x="0"/><rect class="section section2" height="24" width="746.5" y="1152" x="0"/><rect class="section section3" height="24" width="746.5" y="1176" x="0"/><rect class="section section0" height="24" width="746.5" y="1200" x="0"/><rect class="section section1" height="24" width="746.5" y="1224" x="0"/><rect class="section section2" height="24" width="746.5" y="1248" x="0"/><rect class="section section3" height="24" width="746.5" y="1272" x="0"/><rect class="section section0" height="24" width="746.5" y="1296" x="0"/><rect class="section section1" height="24" width="746.5" y="1320" x="0"/><rect class="section section2" height="24" width="746.5" y="1344" x="0"/><rect class="section section3" height="24" width="746.5" y="1368" x="0"/><rect class="section section0" height="24" width="746.5" y="1392" x="0"/><rect class="section section1" height="24" width="746.5" y="1416" x="0"/><rect class="section section2" height="24" width="746.5" y="1440" x="0"/><rect class="section section3" height="24" width="746.5" y="1464" x="0"/><rect class="section section0" height="24" width="746.5" y="1488" x="0"/><rect class="section section1" height="24" width="746.5" y="1512" x="0"/><rect class="section section2" height="24" width="746.5" y="1536" x="0"/><rect class="section section3" height="24" width="746.5" y="1560" x="0"/><rect class="section section0" height="24" width="746.5" y="1584" x="0"/><rect class="section section1" height="24" width="746.5" y="1608" x="0"/><rect class="section section2" height="24" width="746.5" y="1632" x="0"/><rect class="section section3" height="24" width="746.5" y="1656" x="0"/><rect class="section section0" height="24" width="746.5" y="1680" x="0"/><rect class="section section1" height="24" width="746.5" y="1704" x="0"/><rect class="section section2" height="24" width="746.5" y="1728" x="0"/><rect class="section section3" height="24" width="746.5" y="1752" x="0"/><rect class="section section0" height="24" width="746.5" y="1776" x="0"/><rect class="section section1" height="24" width="746.5" y="1800" x="0"/><rect class="section section2" height="24" width="746.5" y="1824" x="0"/><rect class="section section3" height="24" width="746.5" y="1848" x="0"/><rect class="section section0" height="24" width="746.5" y="1872" x="0"/><rect class="section section1" height="24" width="746.5" y="1896" x="0"/><rect class="section section2" height="24" width="746.5" y="1920" x="0"/><rect class="section section3" height="24" width="746.5" y="1944" x="0"/><rect class="section section0" height="24" width="746.5" y="1968" x="0"/><rect class="section section1" height="24" width="746.5" y="1992" x="0"/><rect class="section section1" height="24" width="746.5" y="2016" x="0"/></g><g><rect class="task active0" transform-origin="150px 60px" height="20" width="0" y="50" x="150" ry="3" rx="3" id="task1"/><rect class="task active1" transform-origin="150px 84px" height="20" width="0" y="74" x="150" ry="3" rx="3" id="task2"/><rect class="task active2" transform-origin="150px 108px" height="20" width="0" y="98" x="150" ry="3" rx="3" id="task3"/><rect class="task active3" transform-origin="150px 132px" height="20" width="0" y="122" x="150" ry="3" rx="3" id="task4"/><rect class="task active0" transform-origin="150px 156px" height="20" width="0" y="146" x="150" ry="3" rx="3" id="task5"/><rect class="task active1" transform-origin="150px 180px" height="20" width="0" y="170" x="150" ry="3" rx="3" id="task6"/><rect class="task active2" transform-origin="150px 204px" height="20" width="0" y="194" x="150" ry="3" rx="3" id="task7"/><rect class="task active3" transform-origin="150px 228px" height="20" width="0" y="218" x="150" ry="3" rx="3" id="task8"/><rect class="task active0" transform-origin="150px 252px" height="20" width="0" y="242" x="150" ry="3" rx="3" id="task9"/><rect class="task active1" transform-origin="155.5px 276px" height="20" width="11" y="266" x="150" ry="3" rx="3" id="task10"/><rect class="task active2" transform-origin="150px 300px" height="20" width="0" y="290" x="150" ry="3" rx="3" id="task11"/><rect class="task active3" transform-origin="153px 324px" height="20" width="6" y="314" x="150" ry="3" rx="3" id="task12"/><rect class="task active0" transform-origin="150px 348px" height="20" width="0" y="338" x="150" ry="3" rx="3" id="task13"/><rect class="task active1" transform-origin="150px 372px" height="20" width="0" y="362" x="150" ry="3" rx="3" id="task14"/><rect class="task active2" transform-origin="150px 396px" height="20" width="0" y="386" x="150" ry="3" rx="3" id="task15"/><rect class="task active3" transform-origin="150px 420px" height="20" width="0" y="410" x="150" ry="3" rx="3" id="task16"/><rect class="task active0" transform-origin="161.5px 444px" height="20" width="23" y="434" x="150" ry="3" rx="3" id="task17"/><rect class="task active1" transform-origin="260px 468px" height="20" width="220" y="458" x="150" ry="3" rx="3" id="task18"/><rect class="task active2" transform-origin="150.5px 492px" height="20" width="1" y="482" x="150" ry="3" rx="3" id="task19"/><rect class="task active3" transform-origin="221px 516px" height="20" width="142" y="506" x="150" ry="3" rx="3" id="task20"/><rect class="task active0" transform-origin="151.5px 540px" height="20" width="3" y="530" x="150" ry="3" rx="3" id="task21"/><rect class="task active1" transform-origin="150px 564px" height="20" width="0" y="554" x="150" ry="3" rx="3" id="task22"/><rect class="task active2" transform-origin="172px 588px" height="20" width="44" y="578" x="150" ry="3" rx="3" id="task23"/><rect class="task active3" transform-origin="150.5px 612px" height="20" width="1" y="602" x="150" ry="3" rx="3" id="task24"/><rect class="task active0" transform-origin="153.5px 636px" height="20" width="7" y="626" x="150" ry="3" rx="3" id="task25"/><rect class="task active1" transform-origin="154px 660px" height="20" width="8" y="650" x="150" ry="3" rx="3" id="task26"/><rect class="task active2" transform-origin="156px 684px" height="20" width="12" y="674" x="150" ry="3" rx="3" id="task27"/><rect class="task crit3" transform-origin="429.5px 708px" height="20" width="559" y="698" x="150" ry="3" rx="3" id="task28"/><rect class="task active0" transform-origin="209.5px 732px" height="20" width="119" y="722" x="150" ry="3" rx="3" id="task29"/><rect class="task active1" transform-origin="150.5px 756px" height="20" width="1" y="746" x="150" ry="3" rx="3" id="task30"/><rect class="task active2" transform-origin="151px 780px" height="20" width="2" y="770" x="150" ry="3" rx="3" id="task31"/><rect class="task active3" transform-origin="154px 804px" height="20" width="8" y="794" x="150" ry="3" rx="3" id="task32"/><rect class="task active0" transform-origin="152px 828px" height="20" width="4" y="818" x="150" ry="3" rx="3" id="task33"/><rect class="task active1" transform-origin="250px 852px" height="20" width="200" y="842" x="150" ry="3" rx="3" id="task34"/><rect class="task active2" transform-origin="150.5px 876px" height="20" width="1" y="866" x="150" ry="3" rx="3" id="task35"/><rect class="task crit3" transform-origin="274.5px 900px" height="20" width="249" y="890" x="150" ry="3" rx="3" id="task36"/><rect class="task crit0" transform-origin="429.5px 924px" height="20" width="559" y="914" x="150" ry="3" rx="3" id="task37"/><rect class="task active1" transform-origin="170px 948px" height="20" width="40" y="938" x="150" ry="3" rx="3" id="task38"/><rect class="task active2" transform-origin="150.5px 972px" height="20" width="1" y="962" x="150" ry="3" rx="3" id="task39"/><rect class="task active3" transform-origin="150.5px 996px" height="20" width="1" y="986" x="150" ry="3" rx="3" id="task40"/><rect class="task active0" transform-origin="166.5px 1020px" height="20" width="33" y="1010" x="150" ry="3" rx="3" id="task41"/><rect class="task active1" transform-origin="267px 1044px" height="20" width="234" y="1034" x="150" ry="3" rx="3" id="task42"/><rect class="task active2" transform-origin="150px 1068px" height="20" width="0" y="1058" x="150" ry="3" rx="3" id="task43"/><rect class="task crit3" transform-origin="198.5px 1092px" height="20" width="97" y="1082" x="150" ry="3" rx="3" id="task44"/><rect class="task crit0" transform-origin="429.5px 1116px" height="20" width="559" y="1106" x="150" ry="3" rx="3" id="task45"/><rect class="task crit1" transform-origin="293.5px 1140px" height="20" width="287" y="1130" x="150" ry="3" rx="3" id="task46"/><rect class="task crit2" transform-origin="429.5px 1164px" height="20" width="559" y="1154" x="150" ry="3" rx="3" id="task47"/><rect class="task crit3" transform-origin="429.5px 1188px" height="20" width="559" y="1178" x="150" ry="3" rx="3" id="task48"/><rect class="task active0" transform-origin="200.5px 1212px" height="20" width="101" y="1202" x="150" ry="3" rx="3" id="task49"/><rect class="task crit1" transform-origin="429.5px 1236px" height="20" width="559" y="1226" x="150" ry="3" rx="3" id="task50"/><rect class="task active2" transform-origin="150.5px 1260px" height="20" width="1" y="1250" x="150" ry="3" rx="3" id="task51"/><rect class="task active3" transform-origin="150.5px 1284px" height="20" width="1" y="1274" x="150" ry="3" rx="3" id="task52"/><rect class="task crit0" transform-origin="365px 1308px" height="20" width="430" y="1298" x="150" ry="3" rx="3" id="task53"/><rect class="task active1" transform-origin="183.5px 1332px" height="20" width="67" y="1322" x="150" ry="3" rx="3" id="task54"/><rect class="task crit2" transform-origin="228px 1356px" height="20" width="156" y="1346" x="150" ry="3" rx="3" id="task55"/><rect class="task active3" transform-origin="151px 1380px" height="20" width="2" y="1370" x="150" ry="3" rx="3" id="task56"/><rect class="task crit0" transform-origin="429.5px 1404px" height="20" width="559" y="1394" x="150" ry="3" rx="3" id="task57"/><rect class="task active1" transform-origin="224.5px 1428px" height="20" width="149" y="1418" x="150" ry="3" rx="3" id="task58"/><rect class="task active2" transform-origin="151px 1452px" height="20" width="2" y="1442" x="150" ry="3" rx="3" id="task59"/><rect class="task crit3" transform-origin="429.5px 1476px" height="20" width="559" y="1466" x="150" ry="3" rx="3" id="task60"/><rect class="task crit0" transform-origin="429.5px 1500px" height="20" width="559" y="1490" x="150" ry="3" rx="3" id="task61"/><rect class="task active1" transform-origin="150.5px 1524px" height="20" width="1" y="1514" x="150" ry="3" rx="3" id="task62"/><rect class="task active2" transform-origin="182px 1548px" height="20" width="64" y="1538" x="150" ry="3" rx="3" id="task63"/><rect class="task crit3" transform-origin="429.5px 1572px" height="20" width="559" y="1562" x="150" ry="3" rx="3" id="task64"/><rect class="task active0" transform-origin="178px 1596px" height="20" width="56" y="1586" x="150" ry="3" rx="3" id="task65"/><rect class="task crit1" transform-origin="429.5px 1620px" height="20" width="559" y="1610" x="150" ry="3" rx="3" id="task66"/><rect class="task active2" transform-origin="154px 1644px" height="20" width="8" y="1634" x="150" ry="3" rx="3" id="task67"/><rect class="task crit3" transform-origin="429.5px 1668px" height="20" width="559" y="1658" x="150" ry="3" rx="3" id="task68"/><rect class="task crit0" transform-origin="429.5px 1692px" height="20" width="559" y="1682" x="150" ry="3" rx="3" id="task69"/><rect class="task active1" transform-origin="153px 1716px" height="20" width="6" y="1706" x="150" ry="3" rx="3" id="task70"/><rect class="task crit2" transform-origin="429.5px 1740px" height="20" width="559" y="1730" x="150" ry="3" rx="3" id="task71"/><rect class="task crit3" transform-origin="429.5px 1764px" height="20" width="559" y="1754" x="150" ry="3" rx="3" id="task72"/><rect class="task crit0" transform-origin="429.5px 1788px" height="20" width="559" y="1778" x="150" ry="3" rx="3" id="task73"/><rect class="task crit1" transform-origin="429.5px 1812px" height="20" width="559" y="1802" x="150" ry="3" rx="3" id="task74"/><rect class="task crit2" transform-origin="429.5px 1836px" height="20" width="559" y="1826" x="150" ry="3" rx="3" id="task75"/><rect class="task crit3" transform-origin="429.5px 1860px" height="20" width="559" y="1850" x="150" ry="3" rx="3" id="task76"/><rect class="task crit0" transform-origin="236.5px 1884px" height="20" width="173" y="1874" x="150" ry="3" rx="3" id="task77"/><rect class="task crit1" transform-origin="429.5px 1908px" height="20" width="559" y="1898" x="150" ry="3" rx="3" id="task78"/><rect class="task crit2" transform-origin="352.5px 1932px" height="20" width="405" y="1922" x="150" ry="3" rx="3" id="task79"/><rect class="task crit3" transform-origin="204.5px 1956px" height="20" width="109" y="1946" x="150" ry="3" rx="3" id="task80"/><rect class="task crit0" transform-origin="429.5px 1980px" height="20" width="559" y="1970" x="150" ry="3" rx="3" id="task81"/><rect class="task crit1" transform-origin="429.5px 2004px" height="20" width="559" y="1994" x="150" ry="3" rx="3" id="task82"/><rect class="task vert  task1" transform-origin="709px 2028px" height="2032" width="1.6" y="35" x="709" ry="3" rx="3" id="task83"/><text class="taskTextOutsideRight taskTextOutside0 activeText0 width-27.125" y="63.5" x="155" font-size="11" id="task1-text">0.145 </text><text class="taskTextOutsideRight taskTextOutside1 activeText1 width-27.125" y="87.5" x="155" font-size="11" id="task2-text">0.583 </text><text class="taskTextOutsideRight taskTextOutside2 activeText2 width-27.125" y="111.5" x="155" font-size="11" id="task3-text">0.138 </text><text class="taskTextOutsideRight taskTextOutside3 activeText3 width-27.125" y="135.5" x="155" font-size="11" id="task4-text">0.151 </text><text class="taskTextOutsideRight taskTextOutside0 activeText0 width-27.125" y="159.5" x="155" font-size="11" id="task5-text">1.001 </text><text class="taskTextOutsideRight taskTextOutside1 activeText1 width-27.125" y="183.5" x="155" font-size="11" id="task6-text">1.926 </text><text class="taskTextOutsideRight taskTextOutside2 activeText2 width-27.125" y="207.5" x="155" font-size="11" id="task7-text">0.257 </text><text class="taskTextOutsideRight taskTextOutside3 activeText3 width-27.125" y="231.5" x="155" font-size="11" id="task8-text">1.100 </text><text class="taskTextOutsideRight taskTextOutside0 activeText0 width-27.125" y="255.5" x="155" font-size="11" id="task9-text">0.265 </text><text class="taskTextOutsideRight taskTextOutside1 activeText1 width-32.890625" y="279.5" x="166" font-size="11" id="task10-text">61.176 </text><text class="taskTextOutsideRight taskTextOutside2 activeText2 width-27.125" y="303.5" x="155" font-size="11" id="task11-text">0.326 </text><text class="taskTextOutsideRight taskTextOutside3 activeText3 width-32.890625" y="327.5" x="161" font-size="11" id="task12-text">34.582 </text><text class="taskTextOutsideRight taskTextOutside0 activeText0 width-27.125" y="351.5" x="155" font-size="11" id="task13-text">0.590 </text><text class="taskTextOutsideRight taskTextOutside1 activeText1 width-27.125" y="375.5" x="155" font-size="11" id="task14-text">0.591 </text><text class="taskTextOutsideRight taskTextOutside2 activeText2 width-27.125" y="399.5" x="155" font-size="11" id="task15-text">1.230 </text><text class="taskTextOutsideRight taskTextOutside3 activeText3 width-27.125" y="423.5" x="155" font-size="11" id="task16-text">0.206 </text><text class="taskTextOutsideRight taskTextOutside0 activeText0 width-38.65625" y="447.5" x="178" font-size="11" id="task17-text">124.629 </text><text class="taskText taskText1 activeText1 width-44.421875" y="471.5" x="260" font-size="11" id="task18-text">1179.505 </text><text class="taskTextOutsideRight taskTextOutside2 activeText2 width-27.125" y="495.5" x="156" font-size="11" id="task19-text">7.713 </text><text class="taskText taskText3 activeText3 width-38.65625" y="519.5" x="221" font-size="11" id="task20-text">762.962 </text><text class="taskTextOutsideRight taskTextOutside0 activeText0 width-32.890625" y="543.5" x="158" font-size="11" id="task21-text">13.637 </text><text class="taskTextOutsideRight taskTextOutside1 activeText1 width-27.125" y="567.5" x="155" font-size="11" id="task22-text">0.572 </text><text class="taskText taskText2 activeText2 width-38.65625" y="591.5" x="172" font-size="11" id="task23-text">236.335 </text><text class="taskTextOutsideRight taskTextOutside3 activeText3 width-27.125" y="615.5" x="156" font-size="11" id="task24-text">3.110 </text><text class="taskTextOutsideRight taskTextOutside0 activeText0 width-32.890625" y="639.5" x="162" font-size="11" id="task25-text">36.433 </text><text class="taskTextOutsideRight taskTextOutside1 activeText1 width-32.890625" y="663.5" x="163" font-size="11" id="task26-text">44.301 </text><text class="taskTextOutsideRight taskTextOutside2 activeText2 width-32.890625" y="687.5" x="167" font-size="11" id="task27-text">61.748 </text><text class="taskText taskText3  critText3 width-44.421875" y="711.5" x="429.5" font-size="11" id="task28-text">3001.007 </text><text class="taskText taskText0 activeText0 width-38.65625" y="735.5" x="209.5" font-size="11" id="task29-text">640.177 </text><text class="taskTextOutsideRight taskTextOutside1 activeText1 width-27.125" y="759.5" x="156" font-size="11" id="task30-text">3.587 </text><text class="taskTextOutsideRight taskTextOutside2 activeText2 width-32.890625" y="783.5" x="157" font-size="11" id="task31-text">12.901 </text><text class="taskTextOutsideRight taskTextOutside3 activeText3 width-32.890625" y="807.5" x="163" font-size="11" id="task32-text">41.023 </text><text class="taskTextOutsideRight taskTextOutside0 activeText0 width-32.890625" y="831.5" x="159" font-size="11" id="task33-text">18.856 </text><text class="taskText taskText1 activeText1 width-44.421875" y="855.5" x="250" font-size="11" id="task34-text">1072.678 </text><text class="taskTextOutsideRight taskTextOutside2 activeText2 width-27.125" y="879.5" x="156" font-size="11" id="task35-text">3.298 </text><text class="taskText taskText3  critText3 width-44.421875" y="903.5" x="274.5" font-size="11" id="task36-text">1337.427 </text><text class="taskText taskText0  critText0 width-44.421875" y="927.5" x="429.5" font-size="11" id="task37-text">3001.007 </text><text class="taskText taskText1 activeText1 width-38.65625" y="951.5" x="170" font-size="11" id="task38-text">214.820 </text><text class="taskTextOutsideRight taskTextOutside2 activeText2 width-27.125" y="975.5" x="156" font-size="11" id="task39-text">6.337 </text><text class="taskTextOutsideRight taskTextOutside3 activeText3 width-27.125" y="999.5" x="156" font-size="11" id="task40-text">3.338 </text><text class="taskTextOutsideRight taskTextOutside0 activeText0 width-38.65625" y="1023.5" x="188" font-size="11" id="task41-text">177.859 </text><text class="taskText taskText1 activeText1 width-44.421875" y="1047.5" x="267" font-size="11" id="task42-text">1254.752 </text><text class="taskTextOutsideRight taskTextOutside2 activeText2 width-27.125" y="1071.5" x="155" font-size="11" id="task43-text">2.599 </text><text class="taskText taskText3  critText3 width-38.65625" y="1095.5" x="198.5" font-size="11" id="task44-text">522.606 </text><text class="taskText taskText0  critText0 width-44.421875" y="1119.5" x="429.5" font-size="11" id="task45-text">3001.008 </text><text class="taskText taskText1  critText1 width-44.421875" y="1143.5" x="293.5" font-size="11" id="task46-text">1542.490 </text><text class="taskText taskText2  critText2 width-44.421875" y="1167.5" x="429.5" font-size="11" id="task47-text">3001.009 </text><text class="taskText taskText3  critText3 width-44.421875" y="1191.5" x="429.5" font-size="11" id="task48-text">3001.017 </text><text class="taskText taskText0 activeText0 width-38.65625" y="1215.5" x="200.5" font-size="11" id="task49-text">543.725 </text><text class="taskText taskText1  critText1 width-44.421875" y="1239.5" x="429.5" font-size="11" id="task50-text">3001.008 </text><text class="taskTextOutsideRight taskTextOutside2 activeText2 width-27.125" y="1263.5" x="156" font-size="11" id="task51-text">3.488 </text><text class="taskTextOutsideRight taskTextOutside3 activeText3 width-27.125" y="1287.5" x="156" font-size="11" id="task52-text">6.179 </text><text class="taskText taskText0  critText0 width-44.421875" y="1311.5" x="365" font-size="11" id="task53-text">2307.741 </text><text class="taskText taskText1 activeText1 width-38.65625" y="1335.5" x="183.5" font-size="11" id="task54-text">359.038 </text><text class="taskText taskText2  critText2 width-38.65625" y="1359.5" x="228" font-size="11" id="task55-text">838.119 </text><text class="taskTextOutsideRight taskTextOutside3 activeText3 width-27.125" y="1383.5" x="157" font-size="11" id="task56-text">8.543 </text><text class="taskText taskText0  critText0 width-44.421875" y="1407.5" x="429.5" font-size="11" id="task57-text">3001.008 </text><text class="taskText taskText1 activeText1 width-38.65625" y="1431.5" x="224.5" font-size="11" id="task58-text">797.454 </text><text class="taskTextOutsideRight taskTextOutside2 activeText2 width-32.890625" y="1455.5" x="157" font-size="11" id="task59-text">10.190 </text><text class="taskText taskText3  critText3 width-44.421875" y="1479.5" x="429.5" font-size="11" id="task60-text">3001.009 </text><text class="taskText taskText0  critText0 width-44.421875" y="1503.5" x="429.5" font-size="11" id="task61-text">3001.009 </text><text class="taskTextOutsideRight taskTextOutside1 activeText1 width-27.125" y="1527.5" x="156" font-size="11" id="task62-text">5.924 </text><text class="taskText taskText2 activeText2 width-38.65625" y="1551.5" x="182" font-size="11" id="task63-text">342.888 </text><text class="taskText taskText3  critText3 width-44.421875" y="1575.5" x="429.5" font-size="11" id="task64-text">3001.007 </text><text class="taskText taskText0 activeText0 width-38.65625" y="1599.5" x="178" font-size="11" id="task65-text">303.323 </text><text class="taskText taskText1  critText1 width-44.421875" y="1623.5" x="429.5" font-size="11" id="task66-text">3001.007 </text><text class="taskTextOutsideRight taskTextOutside2 activeText2 width-32.890625" y="1647.5" x="163" font-size="11" id="task67-text">41.655 </text><text class="taskText taskText3  critText3 width-44.421875" y="1671.5" x="429.5" font-size="11" id="task68-text">3001.009 </text><text class="taskText taskText0  critText0 width-44.421875" y="1695.5" x="429.5" font-size="11" id="task69-text">3001.011 </text><text class="taskTextOutsideRight taskTextOutside1 activeText1 width-32.890625" y="1719.5" x="161" font-size="11" id="task70-text">30.001 </text><text class="taskText taskText2  critText2 width-44.421875" y="1743.5" x="429.5" font-size="11" id="task71-text">3001.011 </text><text class="taskText taskText3  critText3 width-44.421875" y="1767.5" x="429.5" font-size="11" id="task72-text">3001.008 </text><text class="taskText taskText0  critText0 width-44.421875" y="1791.5" x="429.5" font-size="11" id="task73-text">3001.008 </text><text class="taskText taskText1  critText1 width-44.421875" y="1815.5" x="429.5" font-size="11" id="task74-text">3001.008 </text><text class="taskText taskText2  critText2 width-44.421875" y="1839.5" x="429.5" font-size="11" id="task75-text">3001.017 </text><text class="taskText taskText3  critText3 width-44.421875" y="1863.5" x="429.5" font-size="11" id="task76-text">3001.010 </text><text class="taskText taskText0  critText0 width-38.65625" y="1887.5" x="236.5" font-size="11" id="task77-text">930.982 </text><text class="taskText taskText1  critText1 width-44.421875" y="1911.5" x="429.5" font-size="11" id="task78-text">3001.025 </text><text class="taskText taskText2  critText2 width-44.421875" y="1935.5" x="352.5" font-size="11" id="task79-text">2176.205 </text><text class="taskText taskText3  critText3 width-38.65625" y="1959.5" x="204.5" font-size="11" id="task80-text">586.266 </text><text class="taskText taskText0  critText0 width-44.421875" y="1983.5" x="429.5" font-size="11" id="task81-text">3001.008 </text><text class="taskText taskText1  critText1 width-44.421875" y="2007.5" x="429.5" font-size="11" id="task82-text">3001.043 </text><text class="taskTextOutsideLeft taskTextOutside1  vertText" y="2087" x="709" font-size="11" id="task83-text">TL </text></g><g><text class="sectionTitle sectionTitle0" font-size="11" y="62" x="10" dy="0em"><tspan x="10" alignment-baseline="central">afiro</tspan></text><text class="sectionTitle sectionTitle1" font-size="11" y="86" x="10" dy="0em"><tspan x="10" alignment-baseline="central">kb2</tspan></text><text class="sectionTitle sectionTitle2" font-size="11" y="110" x="10" dy="0em"><tspan x="10" alignment-baseline="central">sc50a</tspan></text><text class="sectionTitle sectionTitle3" font-size="11" y="134" x="10" dy="0em"><tspan x="10" alignment-baseline="central">sc50b</tspan></text><text class="sectionTitle sectionTitle0" font-size="11" y="158" x="10" dy="0em"><tspan x="10" alignment-baseline="central">adlittle</tspan></text><text class="sectionTitle sectionTitle1" font-size="11" y="182" x="10" dy="0em"><tspan x="10" alignment-baseline="central">share2b</tspan></text><text class="sectionTitle sectionTitle2" font-size="11" y="206" x="10" dy="0em"><tspan x="10" alignment-baseline="central">sc105</tspan></text><text class="sectionTitle sectionTitle3" font-size="11" y="230" x="10" dy="0em"><tspan x="10" alignment-baseline="central">stocfor1</tspan></text><text class="sectionTitle sectionTitle0" font-size="11" y="254" x="10" dy="0em"><tspan x="10" alignment-baseline="central">scagr7</tspan></text><text class="sectionTitle sectionTitle1" font-size="11" y="278" x="10" dy="0em"><tspan x="10" alignment-baseline="central">israel</tspan></text><text class="sectionTitle sectionTitle2" font-size="11" y="302" x="10" dy="0em"><tspan x="10" alignment-baseline="central">recipelp</tspan></text><text class="sectionTitle sectionTitle3" font-size="11" y="326" x="10" dy="0em"><tspan x="10" alignment-baseline="central">share1b</tspan></text><text class="sectionTitle sectionTitle0" font-size="11" y="350" x="10" dy="0em"><tspan x="10" alignment-baseline="central">sc205</tspan></text><text class="sectionTitle sectionTitle1" font-size="11" y="374" x="10" dy="0em"><tspan x="10" alignment-baseline="central">beaconfd</tspan></text><text class="sectionTitle sectionTitle2" font-size="11" y="398" x="10" dy="0em"><tspan x="10" alignment-baseline="central">lotfi</tspan></text><text class="sectionTitle sectionTitle3" font-size="11" y="422" x="10" dy="0em"><tspan x="10" alignment-baseline="central">vtp-base</tspan></text><text class="sectionTitle sectionTitle0" font-size="11" y="446" x="10" dy="0em"><tspan x="10" alignment-baseline="central">brandy</tspan></text><text class="sectionTitle sectionTitle1" font-size="11" y="470" x="10" dy="0em"><tspan x="10" alignment-baseline="central">e226</tspan></text><text class="sectionTitle sectionTitle2" font-size="11" y="494" x="10" dy="0em"><tspan x="10" alignment-baseline="central">bore3d</tspan></text><text class="sectionTitle sectionTitle3" font-size="11" y="518" x="10" dy="0em"><tspan x="10" alignment-baseline="central">grow7</tspan></text><text class="sectionTitle sectionTitle0" font-size="11" y="542" x="10" dy="0em"><tspan x="10" alignment-baseline="central">capri</tspan></text><text class="sectionTitle sectionTitle1" font-size="11" y="566" x="10" dy="0em"><tspan x="10" alignment-baseline="central">scorpion</tspan></text><text class="sectionTitle sectionTitle2" font-size="11" y="590" x="10" dy="0em"><tspan x="10" alignment-baseline="central">bandm</tspan></text><text class="sectionTitle sectionTitle3" font-size="11" y="614" x="10" dy="0em"><tspan x="10" alignment-baseline="central">sctap1</tspan></text><text class="sectionTitle sectionTitle0" font-size="11" y="638" x="10" dy="0em"><tspan x="10" alignment-baseline="central">scfxm1</tspan></text><text class="sectionTitle sectionTitle1" font-size="11" y="662" x="10" dy="0em"><tspan x="10" alignment-baseline="central">agg2</tspan></text><text class="sectionTitle sectionTitle2" font-size="11" y="686" x="10" dy="0em"><tspan x="10" alignment-baseline="central">agg3</tspan></text><text class="sectionTitle sectionTitle3" font-size="11" y="710" x="10" dy="0em"><tspan x="10" alignment-baseline="central">stair</tspan></text><text class="sectionTitle sectionTitle0" font-size="11" y="734" x="10" dy="0em"><tspan x="10" alignment-baseline="central">scsd1</tspan></text><text class="sectionTitle sectionTitle1" font-size="11" y="758" x="10" dy="0em"><tspan x="10" alignment-baseline="central">scagr25</tspan></text><text class="sectionTitle sectionTitle2" font-size="11" y="782" x="10" dy="0em"><tspan x="10" alignment-baseline="central">degen2</tspan></text><text class="sectionTitle sectionTitle3" font-size="11" y="806" x="10" dy="0em"><tspan x="10" alignment-baseline="central">finnis</tspan></text><text class="sectionTitle sectionTitle0" font-size="11" y="830" x="10" dy="0em"><tspan x="10" alignment-baseline="central">etamacro</tspan></text><text class="sectionTitle sectionTitle1" font-size="11" y="854" x="10" dy="0em"><tspan x="10" alignment-baseline="central">fffff800</tspan></text><text class="sectionTitle sectionTitle2" font-size="11" y="878" x="10" dy="0em"><tspan x="10" alignment-baseline="central">standata</tspan></text><text class="sectionTitle sectionTitle3" font-size="11" y="902" x="10" dy="0em"><tspan x="10" alignment-baseline="central">grow15</tspan></text><text class="sectionTitle sectionTitle0" font-size="11" y="926" x="10" dy="0em"><tspan x="10" alignment-baseline="central">pilot4</tspan></text><text class="sectionTitle sectionTitle1" font-size="11" y="950" x="10" dy="0em"><tspan x="10" alignment-baseline="central">scfxm2</tspan></text><text class="sectionTitle sectionTitle2" font-size="11" y="974" x="10" dy="0em"><tspan x="10" alignment-baseline="central">standmps</tspan></text><text class="sectionTitle sectionTitle3" font-size="11" y="998" x="10" dy="0em"><tspan x="10" alignment-baseline="central">standgub</tspan></text><text class="sectionTitle sectionTitle0" font-size="11" y="1022" x="10" dy="0em"><tspan x="10" alignment-baseline="central">scrs8</tspan></text><text class="sectionTitle sectionTitle1" font-size="11" y="1046" x="10" dy="0em"><tspan x="10" alignment-baseline="central">bnl1</tspan></text><text class="sectionTitle sectionTitle2" font-size="11" y="1070" x="10" dy="0em"><tspan x="10" alignment-baseline="central">ship04s</tspan></text><text class="sectionTitle sectionTitle3" font-size="11" y="1094" x="10" dy="0em"><tspan x="10" alignment-baseline="central">fit1d</tspan></text><text class="sectionTitle sectionTitle0" font-size="11" y="1118" x="10" dy="0em"><tspan x="10" alignment-baseline="central">perold</tspan></text><text class="sectionTitle sectionTitle1" font-size="11" y="1142" x="10" dy="0em"><tspan x="10" alignment-baseline="central">grow22</tspan></text><text class="sectionTitle sectionTitle2" font-size="11" y="1166" x="10" dy="0em"><tspan x="10" alignment-baseline="central">maros</tspan></text><text class="sectionTitle sectionTitle3" font-size="11" y="1190" x="10" dy="0em"><tspan x="10" alignment-baseline="central">modszk1</tspan></text><text class="sectionTitle sectionTitle0" font-size="11" y="1214" x="10" dy="0em"><tspan x="10" alignment-baseline="central">scfxm3</tspan></text><text class="sectionTitle sectionTitle1" font-size="11" y="1238" x="10" dy="0em"><tspan x="10" alignment-baseline="central">25fv47</tspan></text><text class="sectionTitle sectionTitle2" font-size="11" y="1262" x="10" dy="0em"><tspan x="10" alignment-baseline="central">shell</tspan></text><text class="sectionTitle sectionTitle3" font-size="11" y="1286" x="10" dy="0em"><tspan x="10" alignment-baseline="central">ship04l</tspan></text><text class="sectionTitle sectionTitle0" font-size="11" y="1310" x="10" dy="0em"><tspan x="10" alignment-baseline="central">wood1p</tspan></text><text class="sectionTitle sectionTitle1" font-size="11" y="1334" x="10" dy="0em"><tspan x="10" alignment-baseline="central">sctap2</tspan></text><text class="sectionTitle sectionTitle2" font-size="11" y="1358" x="10" dy="0em"><tspan x="10" alignment-baseline="central">scsd8</tspan></text><text class="sectionTitle sectionTitle3" font-size="11" y="1382" x="10" dy="0em"><tspan x="10" alignment-baseline="central">ship08s</tspan></text><text class="sectionTitle sectionTitle0" font-size="11" y="1406" x="10" dy="0em"><tspan x="10" alignment-baseline="central">pilot-ja</tspan></text><text class="sectionTitle sectionTitle1" font-size="11" y="1430" x="10" dy="0em"><tspan x="10" alignment-baseline="central">degen3</tspan></text><text class="sectionTitle sectionTitle2" font-size="11" y="1454" x="10" dy="0em"><tspan x="10" alignment-baseline="central">ganges</tspan></text><text class="sectionTitle sectionTitle3" font-size="11" y="1478" x="10" dy="0em"><tspan x="10" alignment-baseline="central">pilotnov</tspan></text><text class="sectionTitle sectionTitle0" font-size="11" y="1502" x="10" dy="0em"><tspan x="10" alignment-baseline="central">pilot-we</tspan></text><text class="sectionTitle sectionTitle1" font-size="11" y="1526" x="10" dy="0em"><tspan x="10" alignment-baseline="central">ship12s</tspan></text><text class="sectionTitle sectionTitle2" font-size="11" y="1550" x="10" dy="0em"><tspan x="10" alignment-baseline="central">sctap3</tspan></text><text class="sectionTitle sectionTitle3" font-size="11" y="1574" x="10" dy="0em"><tspan x="10" alignment-baseline="central">stocfor2</tspan></text><text class="sectionTitle sectionTitle0" font-size="11" y="1598" x="10" dy="0em"><tspan x="10" alignment-baseline="central">czprob</tspan></text><text class="sectionTitle sectionTitle1" font-size="11" y="1622" x="10" dy="0em"><tspan x="10" alignment-baseline="central">cycle</tspan></text><text class="sectionTitle sectionTitle2" font-size="11" y="1646" x="10" dy="0em"><tspan x="10" alignment-baseline="central">ship08l</tspan></text><text class="sectionTitle sectionTitle3" font-size="11" y="1670" x="10" dy="0em"><tspan x="10" alignment-baseline="central">bnl2</tspan></text><text class="sectionTitle sectionTitle0" font-size="11" y="1694" x="10" dy="0em"><tspan x="10" alignment-baseline="central">pilot</tspan></text><text class="sectionTitle sectionTitle1" font-size="11" y="1718" x="10" dy="0em"><tspan x="10" alignment-baseline="central">ship12l</tspan></text><text class="sectionTitle sectionTitle2" font-size="11" y="1742" x="10" dy="0em"><tspan x="10" alignment-baseline="central">d6cube</tspan></text><text class="sectionTitle sectionTitle3" font-size="11" y="1766" x="10" dy="0em"><tspan x="10" alignment-baseline="central">d2q06c</tspan></text><text class="sectionTitle sectionTitle0" font-size="11" y="1790" x="10" dy="0em"><tspan x="10" alignment-baseline="central">greenbeb</tspan></text><text class="sectionTitle sectionTitle1" font-size="11" y="1814" x="10" dy="0em"><tspan x="10" alignment-baseline="central">greenbea</tspan></text><text class="sectionTitle sectionTitle2" font-size="11" y="1838" x="10" dy="0em"><tspan x="10" alignment-baseline="central">pilot87</tspan></text><text class="sectionTitle sectionTitle3" font-size="11" y="1862" x="10" dy="0em"><tspan x="10" alignment-baseline="central">woodw</tspan></text><text class="sectionTitle sectionTitle0" font-size="11" y="1886" x="10" dy="0em"><tspan x="10" alignment-baseline="central">truss</tspan></text><text class="sectionTitle sectionTitle1" font-size="11" y="1910" x="10" dy="0em"><tspan x="10" alignment-baseline="central">maros-r7</tspan></text><text class="sectionTitle sectionTitle2" font-size="11" y="1934" x="10" dy="0em"><tspan x="10" alignment-baseline="central">80bau3b</tspan></text><text class="sectionTitle sectionTitle3" font-size="11" y="1958" x="10" dy="0em"><tspan x="10" alignment-baseline="central">fit2d</tspan></text><text class="sectionTitle sectionTitle0" font-size="11" y="1982" x="10" dy="0em"><tspan x="10" alignment-baseline="central">fit2p</tspan></text><text class="sectionTitle sectionTitle1" font-size="11" y="2018" x="10" dy="0em"><tspan x="10" alignment-baseline="central">qap15</tspan></text></g><g class="today"><line class="today" y2="2067" y1="25" x2="327032" x1="327032"/></g><text class="titleText" y="25" x="392">netlib-clpq (s)</text></svg>